<?xml version="1.0" standalone="no"?>
<!DOCTYPE svg PUBLIC "-//W3C//DTD SVG 20010904//EN"
 "http://www.w3.org/TR/2001/REC-SVG-20010904/DTD/svg10.dtd">
<svg version="1.0" xmlns="http://www.w3.org/2000/svg"
 width="862.000000pt" height="431.000000pt" viewBox="0 0 862.000000 431.000000"
 preserveAspectRatio="xMidYMid meet">
<metadata>
Created by potrace 1.16, written by Peter Selinger 2001-2019
</metadata>
<g transform="translate(0.000000,431.000000) scale(0.100000,-0.100000)"
fill="#000000" stroke="none">
<path d="M445 4128 c4 -101 9 -226 11 -278 3 -52 4 -108 3 -125 -1 -16 -1 -43
0 -60 1 -16 2 -75 4 -131 1 -61 7 -107 14 -116 13 -15 21 -75 22 -173 1 -36 5
-55 10 -47 4 7 6 94 4 192 -4 165 -2 182 16 219 12 22 25 42 31 46 19 12 11
41 -12 42 -35 3 -48 28 -35 68 8 29 7 38 -6 53 -21 23 -22 109 -2 136 8 11 15
35 15 53 0 40 32 77 60 68 25 -8 70 52 46 61 -18 7 -36 -3 -36 -19 0 -7 -12
-18 -27 -25 -22 -10 -30 -10 -39 0 -21 23 -44 107 -44 163 0 49 -2 55 -21 55
-21 0 -21 -1 -14 -182z"/>
<path d="M1216 4237 c-37 -75 -43 -101 -26 -112 24 -15 49 11 91 95 l45 90
-37 0 c-36 0 -38 -2 -73 -73z"/>
<path d="M1471 4235 c-23 -41 -41 -83 -41 -93 0 -32 -34 -54 -71 -47 -21 4
-51 0 -77 -9 -24 -9 -49 -15 -55 -13 -8 1 -13 -30 -17 -105 -3 -62 -10 -112
-17 -119 -8 -8 -9 -18 -1 -34 15 -33 2 -74 -27 -87 -32 -14 -32 -26 0 -38 29
-11 42 -52 27 -84 -14 -32 -91 -53 -131 -37 -44 19 -96 11 -96 -14 0 -19 7
-20 108 -22 66 -1 114 -7 123 -14 14 -12 20 -102 8 -133 -9 -23 -30 -20 -163
19 -65 19 -120 35 -122 35 -2 0 -3 -20 -1 -45 2 -25 8 -45 13 -45 5 0 9 -6 9
-12 0 -7 11 -23 24 -35 l24 -23 44 24 c37 20 58 24 117 22 64 -1 72 0 77 19 4
11 9 22 13 25 3 3 23 39 43 80 54 107 77 131 138 141 37 6 70 3 123 -10 66
-16 72 -20 81 -49 6 -21 18 -34 38 -41 22 -8 29 -15 24 -27 -4 -10 1 -22 11
-31 13 -10 14 -13 3 -10 -20 5 -53 -39 -47 -63 3 -11 1 -18 -4 -14 -5 3 -9 -4
-9 -16 0 -12 -6 -33 -14 -48 -8 -15 -16 -44 -19 -65 -3 -20 -13 -49 -22 -63
l-17 -26 -21 21 c-14 14 -21 32 -20 56 1 19 -3 38 -8 41 -5 3 -9 11 -9 19 0
18 29 47 40 40 5 -3 14 4 21 16 7 14 8 24 1 28 -6 3 -12 22 -14 41 -2 27 -8
36 -24 38 -21 3 -39 -21 -109 -150 -11 -20 -32 -56 -47 -80 -14 -24 -29 -58
-32 -77 -7 -50 -20 -58 -61 -38 -20 9 -43 17 -51 17 -9 0 -34 13 -57 29 -28
19 -66 33 -112 41 -38 7 -77 19 -85 26 -18 15 -77 19 -136 9 -65 -11 -80 12
-89 138 -4 56 -14 114 -21 129 -8 15 -14 37 -14 50 -1 15 -13 31 -36 46 -43
27 -42 27 -79 -2 -25 -20 -29 -29 -26 -67 1 -25 13 -63 27 -86 25 -43 25 -44
18 -211 l-7 -169 24 -6 c13 -4 54 -4 90 0 45 4 68 2 73 -6 4 -6 16 -11 26 -11
23 0 35 -32 21 -58 -5 -10 -9 -33 -9 -51 1 -44 -17 -58 -86 -68 -52 -7 -60
-11 -61 -31 -1 -13 4 -26 10 -28 7 -3 10 -16 7 -30 -5 -29 11 -31 62 -10 32
13 36 13 54 -7 11 -12 23 -32 26 -44 4 -11 14 -27 22 -34 14 -11 18 -10 30 6
8 10 14 29 14 42 0 46 47 51 137 15 33 -13 43 -24 52 -52 6 -19 9 -46 8 -60
-2 -19 5 -28 31 -40 47 -22 49 -36 33 -195 -8 -82 -7 -105 5 -129 8 -16 14
-38 14 -49 0 -23 -27 -46 -53 -47 -24 0 -77 -49 -77 -72 0 -23 56 -58 93 -58
63 0 106 -102 93 -222 -3 -31 1 -148 9 -260 13 -182 17 -212 46 -292 30 -85
31 -90 13 -103 -10 -7 -26 -13 -35 -13 -10 0 -21 -4 -24 -10 -9 -14 5 -13 98
10 121 29 205 40 230 31 12 -5 57 -19 101 -32 145 -43 122 -63 -154 -133 -186
-46 -217 -51 -227 -39 -8 10 -21 13 -42 8 -31 -7 -38 -19 -22 -43 8 -14 12
-13 216 23 44 8 141 24 215 36 74 12 146 26 160 31 22 8 23 10 8 19 -10 6 -18
15 -18 22 0 7 4 6 10 -3 7 -11 10 -1 10 36 0 38 5 55 20 69 11 10 20 24 20 30
0 7 17 21 37 30 31 15 44 16 78 7 47 -12 61 -5 71 41 9 45 22 57 60 57 18 0
56 5 83 11 45 9 55 8 84 -10 26 -16 41 -19 63 -12 49 13 92 -4 109 -46 18 -44
18 -44 0 -37 -22 9 -18 -4 10 -32 14 -14 32 -36 41 -49 14 -22 14 -26 0 -47
-9 -12 -16 -32 -16 -45 0 -28 -15 -37 -60 -36 -20 0 -25 -1 -12 -4 27 -5 30
-47 6 -81 -20 -30 -36 -28 -57 7 -23 39 -22 51 8 95 14 20 25 51 25 68 0 18
10 42 25 60 29 34 24 52 -11 44 -24 -6 -25 -5 -28 37 -1 11 -44 47 -57 47 -6
0 -34 -111 -44 -173 -3 -22 -1 -90 6 -153 10 -95 10 -119 -1 -140 -9 -16 -21
-24 -34 -22 -17 3 -26 23 -53 128 -21 84 -32 151 -33 205 l-2 80 -15 -60 c-12
-51 -13 -73 -3 -140 7 -44 19 -96 27 -117 20 -51 14 -100 -14 -113 -38 -16
-31 -24 42 -51 11 -4 35 -6 53 -5 20 2 32 -2 32 -10 0 -7 3 -10 6 -6 4 3 13 0
21 -8 24 -25 241 -25 259 -1 6 9 28 18 49 21 21 2 41 7 44 11 3 4 -7 4 -22 0
-16 -4 -26 -3 -24 1 3 5 -15 17 -39 27 -24 10 -44 22 -44 26 0 12 53 -7 140
-48 41 -20 89 -41 105 -47 69 -27 135 -59 135 -67 0 -4 7 -8 15 -8 8 0 37 -10
65 -22 49 -21 50 -23 50 -64 0 -47 5 -44 -102 -70 -16 -3 -28 -10 -28 -14 0
-14 106 -51 126 -44 15 5 16 4 4 -5 -12 -8 -6 -11 27 -11 40 0 68 -16 125 -73
22 -21 50 -23 42 -2 -4 8 -3 23 1 32 5 10 9 38 11 63 1 30 9 49 21 58 114 81
136 92 154 81 12 -8 12 -10 -1 -19 -10 -6 -11 -10 -2 -10 6 0 12 -6 12 -14 0
-8 6 -17 13 -19 10 -4 10 -6 0 -6 -7 -1 -13 -12 -13 -25 0 -14 -4 -28 -10 -31
-6 -4 -10 7 -10 24 0 32 -16 42 -26 16 -4 -8 -16 -15 -29 -15 -19 0 -23 -5
-23 -34 0 -47 -12 -96 -23 -96 -13 0 -11 -28 4 -37 20 -13 40 -82 38 -137 -1
-59 -13 -76 -41 -58 -17 10 -20 10 -20 -4 0 -9 8 -29 17 -45 l17 -29 2633 0
2633 0 0 1444 0 1444 -31 -29 c-25 -23 -35 -27 -50 -19 -26 14 -25 77 1 110
11 14 20 30 20 35 1 18 39 57 50 50 7 -4 10 156 10 501 0 482 -1 506 -17 491
-23 -20 -88 -32 -97 -18 -11 17 -34 13 -55 -8 -12 -12 -27 -17 -41 -14 -18 5
-20 10 -14 37 3 17 10 35 15 41 5 5 9 25 9 45 0 46 32 84 63 74 48 -15 106
-56 121 -87 15 -31 16 -28 16 91 l0 122 -139 0 c-110 0 -143 -3 -154 -15 -13
-13 -16 -13 -21 0 -4 13 -36 15 -188 15 l-183 0 -17 -88 c-10 -49 -18 -114
-18 -145 l0 -57 139 0 c83 0 142 4 146 10 3 6 1 10 -6 10 -9 0 -10 3 -3 10 8
8 34 14 85 19 4 1 10 36 14 79 6 72 24 122 44 122 5 0 16 -11 25 -25 16 -24
16 -34 2 -135 -16 -113 -49 -190 -81 -190 -16 0 -29 18 -30 39 0 21 -46 30
-80 15 -23 -10 -25 -13 -10 -14 17 0 17 -2 5 -10 -13 -8 -13 -11 1 -25 11 -11
35 -17 73 -17 31 0 59 -5 62 -9 3 -5 19 -9 35 -9 37 0 50 -29 39 -86 -12 -60
-27 -92 -50 -104 -20 -11 -20 -13 -6 -29 9 -10 16 -22 16 -28 0 -6 7 -17 16
-24 12 -10 15 -24 10 -55 -7 -52 8 -97 47 -146 l29 -36 -13 -114 c-7 -62 -19
-129 -28 -148 l-16 -34 -179 2 c-125 2 -182 6 -187 14 -6 9 -16 9 -43 1 -20
-6 -36 -7 -36 -2 0 10 -73 13 -83 3 -3 -3 -3 -12 0 -20 4 -10 20 -14 52 -13
25 0 89 -4 141 -9 52 -6 120 -10 150 -9 58 2 135 -25 144 -50 9 -22 -33 -71
-74 -87 -26 -10 -44 -27 -57 -53 -19 -36 -23 -38 -84 -45 -96 -11 -216 -20
-291 -22 -36 0 -66 -5 -65 -11 3 -12 -44 -14 -61 -2 -6 5 -36 7 -65 5 -28 -3
-46 -3 -39 -1 26 10 10 23 -28 23 -42 0 -56 16 -17 22 16 2 24 13 31 41 9 36
8 40 -22 68 -22 20 -32 39 -32 59 0 24 6 30 35 40 37 12 76 65 53 72 -6 2 -14
31 -18 64 -8 66 -76 199 -136 264 -41 46 -65 93 -63 127 1 16 -8 47 -20 71
-26 48 -23 89 10 153 29 57 69 82 123 74 59 -9 149 33 167 78 17 42 15 296 -3
337 l-13 30 -346 0 c-306 0 -348 -2 -360 -16 -11 -14 -26 -15 -94 -9 -44 4
-85 11 -91 16 -7 5 -167 8 -385 7 l-374 -3 -3 -22 c-2 -13 -8 -23 -13 -23 -5
0 -9 -24 -9 -54 0 -37 -5 -58 -16 -67 -9 -7 -21 -25 -27 -39 -20 -49 -49 -155
-48 -177 3 -38 2 -104 -1 -173 -5 -109 -46 -160 -130 -160 -26 0 -49 -4 -53
-9 -7 -13 27 -31 59 -31 41 0 60 -39 52 -108 -4 -31 -9 -88 -12 -127 -3 -38
-10 -80 -16 -92 -8 -17 -8 -33 1 -63 14 -46 43 -63 130 -75 43 -6 54 -11 62
-32 16 -42 10 -92 -16 -143 -14 -27 -25 -59 -25 -70 0 -12 -11 -36 -23 -53
-13 -18 -30 -48 -37 -67 -8 -19 -20 -39 -27 -43 -20 -12 -15 -27 8 -24 12 1
24 -4 26 -10 3 -7 -2 -13 -11 -13 -8 0 -17 -4 -20 -9 -9 -14 12 -61 27 -61 7
0 32 -9 54 -20 43 -21 41 -15 60 -135 5 -28 12 -56 16 -62 11 -18 59 -220 69
-288 2 -12 22 -30 51 -45 26 -14 50 -33 53 -42 3 -10 -10 -37 -31 -67 -25 -34
-35 -57 -30 -70 3 -11 -2 -46 -11 -78 -22 -77 -31 -168 -43 -401 l-9 -193 -37
-42 c-20 -23 -41 -49 -48 -57 -7 -8 -14 -53 -15 -101 -3 -69 0 -94 15 -125 33
-68 30 -105 -19 -197 -24 -45 -55 -116 -68 -157 -13 -41 -26 -79 -30 -85 -9
-12 -24 -67 -22 -78 1 -4 -4 -7 -11 -7 -7 0 -18 -9 -25 -20 -7 -11 -19 -20
-27 -20 -8 0 -31 -16 -52 -36 -21 -19 -46 -42 -55 -51 -10 -9 -26 -13 -38 -10
-23 6 -152 -18 -181 -33 -24 -13 -102 -13 -94 0 9 15 -39 12 -53 -2 -10 -10
-15 -10 -21 1 -7 10 -36 12 -137 8 -71 -3 -154 -1 -184 4 -30 5 -107 13 -170
18 -63 5 -126 13 -140 19 -37 15 -162 34 -275 42 -55 5 -138 15 -185 24 -54
10 -107 14 -146 10 -41 -4 -69 -2 -85 7 -29 15 -103 13 -138 -5 -14 -8 -57
-19 -94 -25 -87 -15 -147 -39 -147 -58 0 -13 -3 -13 -15 -3 -8 7 -22 9 -31 6
-13 -5 -15 -14 -10 -41 5 -27 4 -35 -8 -35 -8 0 -16 -4 -18 -9 -1 -5 -15 -12
-30 -16 -29 -7 -68 22 -68 50 0 22 66 91 98 103 67 25 134 42 143 37 25 -16
68 7 97 54 29 47 29 50 18 101 -15 64 -43 89 -81 72 -21 -10 -26 -8 -35 8 -12
23 -7 63 8 68 25 8 11 24 -17 20 -17 -2 -28 -1 -25 4 3 4 20 8 38 8 35 0 159
-74 235 -140 33 -29 126 -86 166 -102 22 -9 92 -21 155 -27 63 -6 160 -16 215
-21 55 -6 154 -12 220 -15 66 -3 162 -10 214 -17 110 -13 221 -7 421 23 80 12
172 25 205 28 l59 6 2 45 c1 25 -1 36 -3 25 -8 -31 -19 -40 -50 -43 -19 -1
-24 1 -14 7 10 7 11 13 2 30 -12 22 -31 29 -31 11 0 -7 -6 -7 -19 -1 -10 6
-46 9 -80 6 -49 -3 -61 -1 -61 10 0 8 3 15 8 16 4 0 16 3 27 5 11 2 35 5 52 7
18 1 33 5 33 8 0 12 -64 19 -74 9 -12 -12 -69 -14 -62 -1 3 5 -12 11 -34 15
-22 3 -40 11 -40 17 0 5 5 7 12 3 8 -5 9 0 5 16 -5 20 -3 22 24 16 17 -3 28
-2 24 3 -3 5 9 13 27 16 18 4 41 13 50 19 15 9 21 8 28 -4 8 -13 10 -12 10 3
0 13 8 17 34 17 18 0 54 11 79 24 l45 24 6 -21 c3 -12 11 -78 16 -147 6 -68
13 -126 15 -129 3 -2 44 3 93 12 48 10 101 17 117 17 46 0 52 9 60 85 3 39 15
122 26 185 11 63 33 219 50 345 49 374 49 369 7 417 -28 31 -48 42 -152 80
-143 52 -239 76 -321 80 -69 3 -80 6 -77 21 2 12 -4 17 -20 16 -16 -1 -18 -3
-6 -6 14 -3 15 -9 6 -34 -13 -37 -23 -37 -39 0 -7 16 -17 27 -22 24 -4 -2 -5
8 -1 24 9 38 14 42 14 10 0 -15 5 -27 10 -27 15 0 11 21 -10 60 -17 31 -19 32
-17 10 1 -19 -3 -26 -21 -28 -29 -4 -52 14 -45 36 3 10 1 13 -4 7 -4 -6 -24
-12 -43 -13 -33 -2 -34 -2 -16 13 11 8 28 15 38 15 12 0 18 6 16 18 -2 9 2 16
9 15 6 -1 16 4 22 11 15 18 -6 67 -25 59 -8 -3 -14 0 -14 6 0 6 -6 11 -14 11
-8 0 -18 5 -21 10 -4 6 -3 10 2 9 23 -4 33 3 34 24 0 21 1 21 9 2 6 -13 9 -15
9 -5 1 25 -11 60 -19 55 -4 -3 -21 2 -38 11 -25 12 -39 13 -70 4 -36 -9 -39
-13 -36 -41 3 -21 0 -29 -9 -26 -6 2 -11 15 -9 29 2 15 -2 29 -7 33 -6 3 -11
15 -11 25 0 11 -10 22 -22 26 -13 4 -28 15 -35 24 -8 11 -22 16 -39 14 -33 -3
-33 -3 -27 -39 3 -23 14 -35 45 -49 78 -39 114 -86 64 -86 -19 0 -25 6 -28 27
-3 30 -42 56 -82 56 -17 0 -29 15 -56 74 -37 81 -42 106 -29 140 6 16 1 29
-20 53 l-27 32 -32 -60 c-35 -66 -37 -72 -21 -72 22 0 79 -73 79 -101 0 -33
-15 -39 -23 -9 -3 13 -11 18 -20 14 -9 -3 -14 -11 -11 -18 3 -7 0 -25 -6 -41
-11 -29 -5 -49 9 -26 12 18 23 -2 14 -25 -4 -10 -17 -27 -30 -39 -37 -31 -46
-89 -21 -136 11 -22 22 -39 25 -39 2 0 1 5 -2 10 -3 6 1 10 10 10 9 0 19 -9
22 -20 5 -21 10 -23 52 -24 28 -1 42 -26 14 -26 -71 0 -173 71 -173 121 0 13
-7 36 -14 51 -16 31 -12 54 23 131 25 56 22 82 -11 74 -16 -4 -18 -3 -9 6 14
14 14 37 1 37 -6 0 -24 -10 -41 -22 -31 -23 -36 -21 -53 17 -3 6 -13 -1 -24
-14 l-19 -24 -13 52 c-6 28 -16 54 -21 57 -5 3 -6 10 -3 16 4 6 16 -2 29 -18
23 -29 23 -29 44 -10 21 19 21 19 21 -14 0 -26 3 -30 13 -21 8 6 20 29 27 51
14 43 39 54 41 18 2 -38 20 63 22 125 1 33 -3 61 -9 65 -16 10 -44 68 -44 92
0 15 6 20 24 20 14 0 28 -5 31 -11 4 -6 23 -8 42 -6 22 3 36 0 39 -7 3 -7 15
-11 27 -10 12 1 27 3 32 3 13 1 50 61 38 61 -5 0 -15 -6 -22 -12 -10 -11 -11
-8 -6 13 4 17 1 31 -9 42 -19 19 -20 34 -3 40 10 4 10 6 0 6 -7 1 -13 12 -13
24 0 13 -9 32 -20 42 -13 11 -20 14 -20 6 0 -8 -5 -7 -16 3 -25 26 -33 10 -19
-38 8 -24 11 -54 8 -67 -6 -21 -7 -21 -20 -4 -13 18 -13 18 -13 0 0 -10 7 -27
17 -37 9 -10 11 -18 6 -18 -6 0 -16 7 -24 16 -7 9 -21 13 -33 10 -23 -6 -56
19 -56 43 0 9 -6 25 -13 36 -8 11 -22 41 -32 68 -10 26 -21 47 -25 47 -8 0
-52 36 -99 81 l-27 26 -12 -26 c-7 -14 -12 -30 -12 -37 0 -6 -7 -11 -16 -10
-9 0 -23 -10 -32 -22 -13 -20 -13 -23 -1 -21 8 1 26 -3 41 -9 20 -8 26 -17 23
-33 -2 -12 0 -30 6 -40 10 -19 10 -20 -51 -67 l-25 -20 38 -18 c62 -29 59 -72
-8 -117 -30 -21 -33 -26 -21 -36 8 -7 20 -10 26 -6 10 6 46 -22 38 -31 -3 -2
-21 3 -41 11 -46 19 -45 20 -39 -11 3 -18 1 -25 -6 -20 -7 4 -11 -3 -12 -21 0
-15 -1 -41 -2 -58 0 -21 9 -41 34 -68 20 -21 38 -35 40 -30 3 4 3 2 2 -5 -6
-22 18 -50 38 -44 10 2 18 8 18 13 0 5 7 9 15 9 9 0 15 -9 15 -25 0 -26 -23
-44 -68 -51 -22 -4 -24 -2 -12 7 12 8 12 12 2 16 -7 2 -20 19 -28 35 -13 25
-18 28 -26 17 -8 -11 -8 -10 -4 5 4 12 0 23 -12 32 -10 7 -24 31 -32 53 -7 22
-16 38 -20 36 -4 -3 -10 18 -14 45 -7 53 -33 73 -62 49 -13 -11 -11 -14 15
-25 35 -15 46 -46 37 -102 -6 -36 -6 -37 8 -12 9 14 15 20 16 13 0 -7 -13 -28
-30 -46 -16 -19 -27 -37 -24 -40 3 -3 -3 -4 -13 -4 -15 2 -17 -4 -15 -35 4
-48 -14 -105 -38 -118 -37 -20 -85 -4 -92 30 -2 8 -9 21 -15 28 -15 16 -17 48
-3 57 6 3 10 -4 10 -17 0 -35 36 -88 61 -88 32 0 59 19 59 40 0 11 -4 20 -10
20 -5 0 -6 8 -3 18 6 14 4 15 -9 4 -14 -11 -16 -9 -14 25 4 50 14 71 37 78 11
4 17 11 14 16 -3 5 0 6 8 3 17 -6 40 44 35 77 -2 18 -12 25 -43 31 -41 9 -81
39 -90 68 -3 9 1 34 9 56 7 21 11 55 8 74 -6 49 9 30 18 -21 6 -30 4 -49 -5
-63 -8 -14 -10 -29 -5 -42 11 -28 22 -34 48 -27 24 6 30 33 8 33 -8 0 -16 7
-20 15 -4 13 -2 13 14 5 25 -13 28 -13 33 8 4 14 5 13 6 -4 1 -12 12 -26 27
-32 14 -7 23 -8 19 -2 -3 5 -1 10 4 10 6 0 11 -12 12 -27 l1 -28 9 30 c5 17 6
38 3 48 -3 11 0 17 10 17 11 0 16 10 16 33 0 25 -9 43 -37 71 -37 36 -43 39
-116 51 -23 4 -43 14 -52 29 -15 23 -11 56 6 56 5 0 9 6 9 13 0 19 38 48 46
35 4 -5 2 -13 -4 -17 -10 -6 7 -101 19 -101 3 0 6 36 5 80 -1 62 3 83 14 90
11 7 12 12 3 21 -8 8 -13 6 -18 -10 -3 -12 -11 -19 -16 -15 -6 3 -17 0 -25 -7
-20 -16 -24 -10 -27 42 -5 56 0 68 22 62 11 -3 21 2 24 11 4 10 -3 17 -23 21
-51 11 -47 27 4 20 39 -6 46 -5 46 9 0 10 5 14 11 10 6 -3 9 -21 7 -39 -2 -21
0 -31 7 -28 7 2 12 -2 13 -9 0 -7 4 -30 8 -50 4 -26 2 -48 -10 -73 -17 -34
-16 -36 10 -80 14 -25 22 -45 18 -45 -13 0 30 -29 43 -30 7 0 10 9 8 20 -2 11
7 33 21 49 l25 30 -36 39 c-40 45 -46 91 -19 144 15 29 18 30 29 15 16 -23 25
-21 25 3 0 18 12 24 48 23 6 -1 12 10 12 22 0 13 6 26 13 28 9 4 9 7 -1 15
-16 11 -12 84 5 89 6 2 13 -6 16 -19 4 -20 4 -20 6 5 0 15 -3 27 -9 27 -5 0
-10 6 -10 13 0 29 -94 89 -102 65 -2 -6 -12 -3 -22 7 -15 15 -19 16 -27 4 -5
-8 -9 -10 -9 -6 0 4 6 18 14 30 14 21 11 77 -4 77 -4 0 -12 -10 -19 -22 -11
-21 -11 -21 -7 8 3 17 1 35 -4 40 -6 6 -6 24 1 47 6 21 8 44 5 50 -2 7 -5 4
-5 -5 -1 -10 -5 -18 -11 -18 -5 0 -10 -9 -10 -19 0 -37 -19 -32 -38 10 -17 37
-20 40 -26 21 -8 -23 4 -51 28 -72 9 -7 16 -19 16 -26 0 -26 -39 8 -60 53
l-20 43 20 20 c19 19 28 46 13 37 -5 -3 -16 6 -26 19 -15 21 -16 24 -2 24 8 0
15 7 15 15 0 20 -10 19 -26 -2 -16 -21 -18 -59 -4 -68 13 -8 13 -25 1 -25 -16
0 -24 41 -24 132 0 48 -3 86 -6 86 -3 -1 -17 4 -31 9 -22 10 -20 11 23 11 36
0 50 -4 57 -19 13 -24 37 -25 44 -1 4 10 15 28 25 39 13 13 16 25 10 34 -8 12
-11 12 -19 -1 -9 -13 -11 -13 -20 0 -5 8 -10 10 -10 3 0 -7 -9 -9 -22 -5 -36
9 -98 53 -91 65 3 5 0 8 -7 5 -7 -2 -29 11 -48 30 -20 18 -47 35 -59 38 -13 4
-23 11 -23 16 0 6 -6 8 -14 5 -17 -7 -51 29 -61 63 -5 19 -4 21 4 10 8 -12 11
-7 11 20 l0 35 25 -30 c13 -16 24 -35 25 -41 0 -14 38 -54 52 -54 7 0 4 6 -7
13 -12 10 -14 16 -7 21 7 4 28 -10 48 -31 l37 -38 -5 63 c-4 34 -2 62 3 62 12
0 12 37 0 42 -4 2 -11 14 -15 28 -6 19 -5 21 3 10 9 -13 11 -13 11 3 0 19 20
24 20 5 1 -30 39 -58 86 -65 34 -4 45 -3 40 5 -4 7 -15 12 -25 12 -10 0 -24 7
-31 15 -10 12 -10 15 4 15 9 0 16 -4 16 -10 0 -5 8 -10 18 -10 10 0 23 -5 29
-11 7 -7 13 -7 17 0 4 5 14 7 24 4 9 -4 -3 16 -28 43 -47 53 -60 62 -60 45 0
-6 -7 -11 -15 -11 -8 0 -15 6 -15 13 0 7 -21 26 -46 42 -43 27 -71 61 -61 72
3 2 8 -4 11 -15 4 -11 17 -22 29 -25 12 -2 40 -12 62 -22 l40 -17 -21 23 c-39
44 -39 54 0 29 l38 -23 -12 22 c-6 13 -26 29 -43 36 -18 8 -44 27 -59 44 -14
17 -35 31 -47 31 -11 0 -31 5 -45 11 -20 9 -29 9 -41 -1 -13 -11 -18 -11 -24
-1 -9 14 -92 12 -102 -3 -4 -4 -16 -3 -28 4 -12 6 -34 10 -49 9 -15 -1 -34 1
-42 4 -41 18 -118 37 -145 36 -29 -1 -30 -1 -5 -9 32 -10 15 -13 -91 -14 l-85
-1 6 43 7 42 -768 0 -769 0 -36 -77 c-36 -76 -69 -128 -82 -128 -4 0 -12 -3
-17 -7 -12 -7 -55 25 -55 41 0 6 -4 11 -10 11 -5 0 -10 -6 -10 -14 0 -37 -85
-61 -110 -31 -10 12 -6 28 23 87 51 105 54 118 24 118 -21 0 -32 -13 -66 -75z
m1364 -45 c4 -22 11 -40 16 -40 6 0 8 -4 5 -8 -3 -5 -7 -20 -10 -35 -2 -15
-14 -41 -26 -57 -19 -27 -27 -30 -73 -29 -29 0 -68 5 -87 12 -29 10 -35 17
-36 43 -2 50 17 67 73 62 26 -3 56 -8 66 -12 12 -6 17 -4 17 8 0 9 5 16 10 16
6 0 10 18 10 40 0 28 4 40 14 40 9 0 17 -15 21 -40z m480 12 c-3 -3 -11 0 -18
7 -9 10 -8 11 6 5 10 -3 15 -9 12 -12z m270 8 c17 -7 15 -9 -12 -9 -18 -1 -33
4 -33 9 0 12 17 12 45 0z m3375 0 c12 -7 20 -27 25 -62 6 -43 14 -59 45 -88
33 -31 38 -42 43 -98 4 -39 14 -73 27 -90 25 -33 50 -122 50 -175 0 -26 -8
-49 -27 -73 -24 -32 -25 -39 -15 -68 17 -45 15 -110 -4 -154 -8 -20 -24 -79
-35 -130 -34 -160 -70 -233 -127 -252 -39 -14 -57 -45 -61 -107 -1 -6 -20 -14
-43 -18 -24 -4 -57 -11 -73 -17 -25 -9 -38 -7 -73 11 -23 12 -55 22 -71 24
-16 1 -30 5 -30 10 -2 23 2 27 36 27 l36 0 -21 23 c-25 27 -28 64 -8 122 20
58 20 218 0 290 -39 145 -39 137 -2 168 24 20 32 34 30 52 -3 18 3 27 20 34
43 17 130 41 148 41 33 0 40 23 37 126 -2 64 -9 110 -19 129 -8 17 -23 64 -32
105 -10 41 -21 83 -27 92 -10 20 -12 72 -2 81 10 11 152 8 173 -3z m-3110
-104 c0 -5 -6 -3 -13 3 -8 6 -17 8 -21 4 -4 -4 -4 0 0 10 4 11 0 19 -10 23 -9
3 -13 11 -9 17 6 10 53 -39 53 -57z m-661 -44 c-12 -23 -25 -42 -31 -42 -5 0
-8 -8 -6 -17 1 -10 -2 -25 -7 -33 -8 -13 -7 -13 8 -1 9 7 14 17 12 22 -3 4 4
13 16 20 20 10 21 9 16 -12 -4 -13 -7 -28 -7 -32 0 -5 -4 -5 -10 -2 -5 3 -10
3 -11 -2 -2 -26 -10 -57 -20 -75 -10 -19 -11 -19 -29 -1 -9 10 -14 23 -10 28
12 16 20 86 9 80 -5 -4 -9 -1 -9 4 0 6 5 11 10 11 6 0 10 5 10 10 0 10 72 91
77 87 1 -2 -7 -22 -18 -45z m701 5 c0 -7 -9 -13 -20 -14 -16 -1 -17 1 -7 12
15 18 27 19 27 2z m72 -52 c6 -14 15 -25 20 -25 5 0 6 -5 3 -10 -4 -6 -15 0
-27 15 -10 14 -26 25 -34 25 -8 0 -14 5 -14 10 0 21 41 9 52 -15z m-1223 -69
c10 -11 7 -17 -11 -30 -28 -20 -47 -20 -54 -1 -14 35 41 60 65 31z m199 -31
c0 -14 -4 -25 -8 -25 -10 0 -21 41 -14 52 9 15 22 -1 22 -27z m1060 -27 c-5
-15 -23 -11 -26 6 -2 11 2 14 13 10 9 -4 14 -11 13 -16z m-903 1 c11 -16 1
-19 -13 -3 -7 8 -8 14 -3 14 5 0 13 -5 16 -11z m725 -4 c0 -8 -4 -15 -10 -15
-5 0 -10 7 -10 15 0 8 5 15 10 15 6 0 10 -7 10 -15z m-686 -57 c-5 -9 -2 -8
10 1 15 13 18 12 23 -7 3 -12 9 -22 14 -22 4 0 17 -9 28 -21 12 -13 34 -22 62
-24 24 -1 63 -12 86 -24 23 -11 47 -21 53 -21 5 0 30 -10 55 -22 34 -18 45
-29 46 -48 1 -17 3 -20 6 -7 2 9 8 17 13 17 11 0 6 -30 -6 -38 -14 -11 -16
-42 -4 -57 7 -8 9 -27 5 -44 -4 -19 -1 -38 9 -53 24 -36 7 -47 -80 -54 -84 -7
-114 -17 -114 -37 0 -7 -9 -18 -20 -25 -12 -7 -20 -23 -20 -40 0 -15 -10 -47
-21 -72 -15 -33 -19 -56 -14 -86 6 -44 -8 -65 -52 -78 -32 -10 -29 -23 7 -31
16 -3 32 -14 35 -24 3 -11 22 -23 48 -29 l42 -11 -59 3 c-51 3 -57 1 -41 -11
11 -7 31 -13 46 -13 15 0 31 -5 34 -10 4 -6 11 -8 16 -4 13 7 41 -15 33 -27
-7 -12 -106 -4 -134 11 -12 6 -24 9 -27 7 -9 -10 12 -32 32 -35 11 -2 45 -6
75 -10 51 -7 53 -8 32 -20 -26 -15 -20 -32 12 -32 12 0 28 -6 34 -12 10 -10
21 -3 52 32 33 37 41 42 50 30 8 -12 10 -9 11 15 1 17 1 41 0 55 -1 20 1 22 9
10 8 -13 10 -13 10 2 0 22 -20 34 -31 17 -6 -11 -12 -10 -28 5 -11 10 -23 28
-27 39 -4 12 -27 52 -51 90 -39 60 -61 120 -42 114 3 -1 12 3 20 10 8 7 28 10
44 8 17 -2 34 -4 38 -4 5 -1 6 -5 3 -9 -3 -5 9 -7 27 -5 31 4 31 4 12 -13 -19
-16 -17 -16 38 -11 31 3 57 4 57 3 0 -1 -9 -21 -20 -44 -11 -22 -20 -56 -20
-74 0 -18 -4 -48 -10 -67 -7 -26 -6 -39 5 -55 24 -33 18 -146 -7 -146 -15 0
-36 -24 -62 -74 -13 -24 -27 -42 -32 -38 -4 4 -4 1 0 -5 4 -8 -4 -23 -20 -38
-47 -43 -150 -28 -187 29 -10 14 -26 67 -37 116 -10 50 -29 109 -42 133 -14
23 -35 60 -47 82 -13 22 -31 49 -41 60 -27 31 -30 72 -13 167 15 87 42 150 43
101 0 -15 10 -28 30 -38 34 -18 44 -19 35 -4 -4 6 1 17 11 24 29 22 39 17 13
-6 -20 -17 -21 -20 -5 -15 16 5 17 4 7 -8 -7 -8 -22 -17 -34 -19 -18 -4 -18
-4 5 -6 39 -2 75 15 83 39 5 16 -4 32 -42 71 -52 54 -114 99 -137 99 -31 0
-25 -30 10 -46 26 -12 32 -19 22 -25 -22 -15 -48 -11 -42 6 11 28 -6 15 -33
-26 -31 -48 -43 -38 -15 12 10 19 22 48 26 64 4 17 15 48 26 70 16 34 39 132
57 240 6 40 11 55 18 55 4 0 3 -6 -1 -12z m-136 -43 c-21 -20 -38 -40 -38 -45
0 -6 -5 -10 -10 -10 -11 0 -2 53 10 58 4 1 16 9 26 17 39 30 48 14 12 -20z
m763 -28 c-13 -13 -14 5 -3 43 l7 25 3 -29 c2 -16 -1 -33 -7 -39z m-121 -2
c14 -19 14 -19 -2 -6 -10 7 -18 18 -18 24 0 6 1 8 3 6 1 -2 9 -13 17 -24z
m207 -47 c-3 -8 -6 -5 -6 6 -1 11 2 17 5 13 3 -3 4 -12 1 -19z m-190 -10 c-3
-8 -6 -5 -6 6 -1 11 2 17 5 13 3 -3 4 -12 1 -19z m343 -38 c0 -11 -2 -20 -4
-20 -2 0 -6 9 -9 20 -3 11 -1 20 4 20 5 0 9 -9 9 -20z m95 -72 c7 -7 1 -8 -20
-4 -16 4 -34 12 -40 18 -7 7 -1 8 20 4 17 -4 35 -12 40 -18z m-1385 -91 c17
-30 4 -52 -23 -41 -31 12 -34 81 -4 71 7 -2 19 -15 27 -30z m1216 -3 c-4 -12
-10 -14 -17 -7 -5 5 -7 17 -3 27 4 12 10 14 17 7 5 -5 7 -17 3 -27z m2437 -37
c11 -22 20 -92 28 -212 15 -230 15 -288 1 -293 -7 -2 -12 -16 -12 -30 -1 -33
-50 -117 -51 -87 0 19 -1 19 -8 1 -5 -14 -10 -16 -15 -7 -4 6 -5 18 -2 26 3 9
-1 15 -10 15 -8 0 -19 10 -24 23 -13 29 -33 60 -44 68 -5 4 -9 33 -10 65 l-1
59 32 3 c55 5 61 24 45 129 -6 34 -7 77 -2 97 4 20 3 56 -2 81 -8 37 -7 50 6
70 23 35 51 32 69 -8z m-4499 -3 c12 -30 6 -121 -8 -133 -11 -9 -15 -8 -20 5
-9 24 -7 62 4 69 15 9 12 35 -5 40 -8 3 -22 7 -31 10 -24 8 -6 25 26 25 16 0
30 -7 34 -16z m2142 -106 c4 -7 3 -8 -4 -4 -7 4 -14 -4 -18 -21 -9 -45 -16
-59 -21 -46 -4 11 22 83 31 83 3 0 8 -5 12 -12z m-489 -9 c-14 -8 -22 -8 -30
0 -8 8 -3 11 19 11 25 -1 27 -2 11 -11z m3835 -81 c26 -51 49 -103 53 -115 11
-40 -6 -92 -45 -131 -30 -32 -46 -40 -87 -45 -43 -5 -54 -3 -69 14 -21 23 -40
25 -48 4 -3 -9 -18 -15 -35 -15 -30 0 -45 19 -35 44 8 21 46 27 65 10 9 -8 23
-12 31 -9 16 6 20 20 59 190 40 180 46 183 111 53z m-3543 2 c0 -23 -1 -23 -9
-5 -5 11 -9 31 -9 45 0 23 1 23 9 5 5 -11 9 -31 9 -45z m-2049 38 c0 21 54 10
58 -12 2 -10 -2 -22 -9 -26 -9 -6 -6 -16 14 -40 26 -30 26 -33 12 -61 -12 -22
-13 -34 -5 -49 6 -11 15 -20 19 -20 15 0 22 -32 10 -46 -6 -8 -20 -14 -30 -14
-10 0 -33 -9 -51 -19 -42 -24 -165 -51 -201 -44 -15 3 -32 13 -37 23 -9 18 -3
60 10 60 13 0 80 107 80 129 0 30 29 59 65 63 21 2 31 9 33 23 2 11 5 27 8 35
4 13 6 13 14 0 7 -11 10 -12 10 -2z m1690 -31 c0 -5 -4 -5 -10 -2 -5 3 -10 14
-10 23 0 15 2 15 10 2 5 -8 10 -19 10 -23z m-1202 -39 c45 -13 54 -37 53 -136
0 -103 -7 -112 -92 -112 -47 0 -57 3 -62 19 -7 28 -9 230 -2 241 6 10 47 5
103 -12z m779 0 c-3 -8 -6 -5 -6 6 -1 11 2 17 5 13 3 -3 4 -12 1 -19z m1013
-33 c10 -18 16 -22 22 -13 10 17 10 -30 -1 -56 -8 -22 -15 -15 -25 28 -8 31
-22 49 -48 59 -10 3 -18 13 -18 21 0 22 53 -7 70 -39z m35 35 c3 -5 1 -10 -4
-10 -6 0 -11 5 -11 10 0 6 2 10 4 10 3 0 8 -4 11 -10z m44 -87 c-7 -13 -16
-23 -21 -23 -12 0 -10 28 2 35 6 4 10 14 9 23 -3 32 2 37 12 12 7 -17 6 -31
-2 -47z m-1076 -38 c5 -30 4 -36 -4 -25 -9 12 -10 10 -6 -7 3 -13 1 -23 -4
-23 -5 0 -9 -7 -9 -15 0 -9 -11 -26 -25 -39 -14 -13 -25 -30 -26 -37 0 -10 -2
-11 -6 -1 -2 6 -9 10 -13 7 -5 -3 -7 -12 -4 -19 3 -7 -2 -16 -10 -19 -21 -8
-21 24 -1 63 9 17 11 30 6 30 -6 0 1 12 14 26 14 15 25 30 25 35 0 9 51 71 55
67 1 -2 5 -21 8 -43z m302 -5 c0 -20 -32 -37 -45 -24 -8 8 -7 16 6 28 18 19
39 17 39 -4z m881 -67 c-4 -4 -11 -1 -16 7 -16 25 -11 35 7 17 9 -9 13 -20 9
-24z m4114 12 c0 -8 -4 -15 -10 -15 -5 0 -10 7 -10 15 0 8 5 15 10 15 6 0 10
-7 10 -15z m-7152 -17 c15 -15 16 -150 2 -164 -6 -6 -6 -21 2 -42 9 -24 10
-39 1 -62 -7 -17 -7 -32 -2 -36 5 -3 9 -19 9 -35 0 -28 -2 -30 -31 -27 -41 4
-59 30 -41 58 11 18 9 23 -23 41 -25 15 -35 28 -35 45 0 28 -31 44 -85 44 -39
0 -58 22 -70 78 -4 18 -13 36 -21 39 -22 8 -17 43 5 43 11 0 23 5 26 10 8 13
51 13 91 -2 27 -9 38 -8 66 5 39 20 89 22 106 5z m2472 -23 c0 -15 -6 -25 -15
-25 -12 0 -13 4 -3 25 6 14 13 25 15 25 1 0 3 -11 3 -25z m-2160 -86 c0 -11
-4 -17 -10 -14 -5 3 -10 15 -10 26 0 11 5 17 10 14 6 -3 10 -15 10 -26z m1500
-28 c0 -20 -13 -41 -25 -41 -7 0 -16 -6 -18 -12 -3 -7 -6 1 -6 19 -1 25 2 31
14 27 8 -4 15 -1 15 5 0 6 5 11 10 11 6 0 10 -4 10 -9z m794 -16 c-4 -8 -8
-15 -10 -15 -2 0 -4 7 -4 15 0 8 4 15 10 15 5 0 7 -7 4 -15z m-117 -17 c-3 -8
-6 -5 -6 6 -1 11 2 17 5 13 3 -3 4 -12 1 -19z m-644 -10 c-13 -12 -26 -19 -29
-15 -4 4 1 14 12 22 29 22 41 18 17 -7z m3577 -21 c13 -24 13 -28 -1 -43 -13
-13 -21 -14 -38 -5 -23 13 -28 50 -9 69 17 17 30 11 48 -21z m-2954 1 c-3 -13
-6 -31 -6 -40 0 -9 -11 -29 -25 -44 -31 -33 -32 -60 -2 -84 12 -10 18 -22 13
-27 -5 -4 -11 -2 -13 5 -3 6 -13 12 -22 12 -13 0 -17 8 -17 35 1 19 4 35 9 35
4 0 7 7 7 15 0 8 -5 15 -11 15 -6 0 -3 7 6 16 11 12 13 20 6 27 -6 6 -11 16
-11 22 0 5 4 4 8 -3 12 -18 42 -4 42 19 0 10 5 19 11 19 7 0 9 -9 5 -22z
m-1701 -34 c22 -22 14 -38 -20 -42 -32 -4 -57 20 -48 44 7 19 48 18 68 -2z
m1026 -8 c0 13 5 9 15 -15 8 -18 13 -38 10 -45 -2 -6 -5 -3 -5 7 -1 9 -5 17
-11 17 -13 0 -13 -27 0 -35 5 -3 7 -12 3 -20 -3 -10 1 -15 13 -15 16 0 15 -3
-6 -20 -14 -10 -25 -25 -25 -32 -1 -7 -6 -12 -13 -10 -15 3 -16 -10 -1 -25 8
-8 6 -13 -9 -17 -11 -4 -24 -6 -28 -5 -31 5 -36 -2 -31 -43 3 -24 10 -44 16
-46 11 -4 3 -32 -10 -32 -4 0 -14 18 -20 40 -17 56 7 131 58 185 31 33 34 40
20 43 -9 2 -14 8 -11 14 4 6 7 25 6 42 -1 29 0 30 14 12 14 -20 14 -20 15 0z
m3304 -6 c3 -5 1 -10 -4 -10 -6 0 -11 5 -11 10 0 6 2 10 4 10 3 0 8 -4 11 -10z
m-4734 -31 c46 -20 67 -49 35 -49 -27 0 -106 41 -106 55 0 20 12 19 71 -6z
m2379 -43 c-12 -20 -26 -36 -31 -36 -15 0 -10 18 9 32 10 7 22 22 25 32 4 10
10 16 13 13 4 -3 -4 -22 -16 -41z m-246 15 c6 -10 -22 -37 -29 -29 -8 7 5 38
15 38 5 0 11 -4 14 -9z m-1478 -37 c-4 -12 -10 -14 -17 -7 -5 5 -7 17 -3 27 4
12 10 14 17 7 5 -5 7 -17 3 -27z m835 -21 c-12 -20 -14 -14 -5 12 4 9 9 14 11
11 3 -2 0 -13 -6 -23z m814 -3 c-10 -11 -20 -18 -23 -15 -3 3 3 14 13 25 10
11 20 18 23 15 3 -3 -3 -14 -13 -25z m-792 -20 c-10 -17 -19 -26 -21 -21 -5
14 17 51 29 51 6 0 2 -14 -8 -30z m490 -2 c-3 -27 -2 -30 7 -15 16 25 40 21
40 -6 0 -13 -8 -48 -17 -78 -9 -30 -15 -63 -14 -73 4 -27 31 -67 42 -60 11 6
12 -59 2 -70 -4 -4 -13 8 -19 26 l-12 33 -1 -30 c-1 -17 4 -36 10 -42 8 -8 5
-13 -10 -18 -31 -9 -53 -60 -39 -90 12 -26 33 -23 23 3 -3 9 -2 13 2 8 4 -4 8
-18 8 -29 0 -13 6 -22 15 -22 8 0 15 -8 15 -17 0 -28 15 -33 31 -10 15 22 41
21 27 -1 -4 -7 1 -6 11 2 22 18 19 78 -4 73 -8 -2 -30 -5 -48 -6 -23 -1 -31 2
-27 12 3 8 5 18 5 23 0 5 7 9 15 9 18 0 20 -17 3 -23 -7 -2 1 -4 17 -3 17 1
35 5 42 9 17 11 35 -28 39 -84 3 -47 2 -49 -42 -81 -28 -20 -41 -34 -32 -36
21 -4 23 -88 2 -119 -16 -25 -47 -63 -74 -92 -18 -19 -53 -97 -71 -161 -7 -25
-21 -55 -32 -67 -24 -27 -12 -48 34 -58 16 -4 29 -11 29 -16 0 -11 -6 -11 -52
2 -32 8 -42 7 -63 -8 -13 -10 -25 -24 -25 -30 0 -18 -19 -16 -26 2 -4 8 -10
12 -15 9 -5 -3 -9 -2 -8 3 1 4 1 18 0 31 -1 19 -5 22 -23 16 -12 -3 -29 -13
-37 -21 -12 -13 -12 -16 0 -24 8 -5 18 -9 23 -9 5 0 7 -3 3 -6 -3 -3 -20 0
-36 7 -30 13 -46 50 -41 90 1 8 2 24 1 37 l-1 23 -27 -20 c-36 -29 -41 -18 -9
19 14 17 26 37 26 43 0 6 9 20 20 32 11 11 21 34 23 51 2 16 6 35 10 41 4 7 3
14 -2 18 -6 3 -8 12 -4 20 9 24 -21 17 -45 -10 -12 -14 -29 -25 -37 -25 -8 0
-12 -6 -9 -13 3 -8 -14 -21 -46 -34 -27 -12 -50 -26 -50 -32 0 -6 3 -10 8 -10
4 1 14 1 22 0 13 -1 13 -3 1 -10 -25 -16 -42 -1 -39 33 3 28 1 31 -22 28 -14
-2 -32 -10 -41 -18 -8 -8 -22 -14 -30 -13 -10 0 -11 2 -1 6 7 3 23 21 36 40
27 39 26 89 -2 112 -16 13 -16 13 1 7 15 -5 17 -2 12 15 -5 15 -4 19 4 15 16
-10 14 -2 -10 44 -20 37 -48 58 -36 26 4 -10 1 -13 -9 -9 -7 3 -14 6 -14 8 0
5 31 80 50 120 11 22 17 50 14 62 -5 16 -2 21 13 20 13 -2 19 6 21 31 3 33
-11 44 -22 16 -4 -9 -9 -14 -12 -11 -4 3 3 19 15 35 23 32 28 62 10 62 -6 0
-7 5 -2 13 12 19 14 47 3 47 -6 0 -10 24 -11 53 -1 49 -1 50 -9 17 -5 -19 -6
-38 -4 -42 3 -4 -2 -5 -10 -2 -18 7 -21 20 -6 29 5 3 7 12 3 20 -3 8 -2 27 2
42 5 21 8 24 16 12 7 -11 9 -9 9 8 0 23 21 26 42 5 9 -9 8 -12 -4 -12 -20 0
-34 -69 -20 -96 13 -24 52 -121 52 -128 0 -3 -5 -5 -11 -4 -6 2 -14 -3 -17
-11 -3 -9 0 -11 8 -6 9 6 9 2 0 -16 l-13 -23 29 19 29 19 -28 -33 c-15 -18
-27 -40 -27 -49 0 -12 7 -7 20 13 23 35 26 28 7 -18 -8 -18 -12 -37 -10 -43 2
-6 -15 -31 -37 -57 -25 -28 -36 -48 -30 -52 8 -5 7 -11 -1 -22 -10 -12 -10
-16 1 -23 14 -9 23 -70 22 -157 l0 -52 24 15 c13 9 26 25 30 36 8 25 -4 71
-16 63 -6 -4 -7 -11 -4 -17 4 -7 2 -8 -5 -4 -6 4 -9 11 -6 16 3 4 0 10 -6 12
-6 2 -8 14 -3 32 4 17 9 23 14 16 5 -8 10 -6 15 7 5 10 7 21 7 26 -4 16 9 6
16 -14 8 -20 9 -19 20 6 11 23 10 27 -2 22 -10 -4 -13 2 -12 23 1 16 -3 28 -8
27 -6 -1 -11 5 -11 13 0 8 6 14 13 12 17 -3 15 15 -3 22 -22 8 -18 31 11 63
14 15 22 22 18 14 -14 -27 -13 -61 2 -61 8 0 14 -10 14 -25 0 -14 5 -25 11
-25 6 0 8 -9 3 -22 -7 -23 -6 -23 15 -4 15 14 18 23 11 31 -6 7 -8 20 -4 29 3
9 1 16 -5 16 -8 0 -7 6 1 20 12 18 13 18 22 2 6 -9 9 -29 7 -45 -3 -30 25 -50
39 -27 4 7 13 9 20 5 9 -6 9 -3 1 14 -9 17 -9 20 2 15 8 -3 17 3 21 13 4 10 2
19 -3 21 -6 2 -11 12 -11 23 0 10 -4 19 -9 19 -9 0 -12 8 -31 64 -10 31 -3 29
14 -5 15 -29 32 -24 28 8 l-4 26 26 -28 c14 -15 23 -31 21 -36 -3 -4 -1 -10 4
-13 5 -3 16 5 25 19 22 34 42 31 50 -7 7 -35 17 -32 21 6 3 19 -4 28 -26 38
-32 14 -38 28 -13 28 11 0 14 6 9 21 -5 14 -3 20 7 18 32 -4 49 3 78 31 37 37
44 37 38 5 -6 -30 8 -33 17 -4 5 13 2 25 -6 29 -10 7 -10 11 0 24 9 11 10 16
2 16 -6 0 -11 -3 -11 -7 0 -5 -14 -8 -30 -9 -33 -1 -53 -14 -32 -21 6 -3 12
-9 12 -14 0 -6 -4 -7 -10 -4 -5 3 -18 1 -29 -4 -16 -9 -20 -7 -25 15 -8 30 30
114 51 114 14 0 17 -12 6 -24 -11 -11 -14 -46 -3 -46 6 0 10 11 10 25 0 14 5
25 10 25 6 0 9 -5 8 -11 -2 -6 3 -14 10 -16 6 -3 12 2 12 10 0 9 6 18 13 21 6
3 2 3 -10 1 -12 -3 -24 -1 -28 4 -6 11 29 51 45 51 23 0 9 59 -20 87 -26 24
-28 29 -12 35 38 15 49 9 45 -24z m557 22 c0 -5 -5 -10 -11 -10 -5 0 -7 5 -4
10 3 6 8 10 11 10 2 0 4 -4 4 -10z m-310 -19 c0 -6 -4 -13 -10 -16 -5 -3 -10
1 -10 9 0 9 5 16 10 16 6 0 10 -4 10 -9z m40 -85 c0 -19 53 -53 58 -38 2 7 8
12 13 12 5 0 4 -9 -3 -19 -11 -18 -15 -19 -46 -5 -19 7 -37 12 -41 10 -3 -2
-15 8 -25 22 l-19 25 27 -7 c18 -4 25 -3 21 4 -3 5 -1 10 4 10 6 0 11 -6 11
-14z m3760 -6 c43 0 80 4 82 10 2 6 8 6 18 0 13 -8 12 -10 -2 -10 -10 0 -18
-7 -18 -16 0 -12 11 -15 53 -14 87 1 176 -17 184 -36 3 -8 11 -14 19 -14 27 0
13 -29 -17 -35 -26 -6 -36 -3 -55 18 -13 15 -24 31 -24 37 0 5 -7 10 -16 10
-8 0 -13 -4 -10 -9 3 -4 -3 -16 -14 -26 -11 -10 -20 -24 -20 -30 0 -9 -13 -11
-45 -8 -29 4 -56 0 -77 -10 -38 -18 -146 -15 -194 4 -16 7 -39 11 -51 10 -13
-1 -26 6 -33 18 -10 20 -8 21 45 21 48 0 55 2 55 20 0 10 9 24 20 30 15 8 19
18 16 33 -3 12 -3 16 0 10 4 -9 31 -13 84 -13z m-3113 -22 c-3 -8 -6 -5 -6 6
-1 11 2 17 5 13 3 -3 4 -12 1 -19z m2883 8 c0 -22 -11 -46 -21 -46 -10 0 -49
41 -49 52 0 4 16 8 35 8 24 0 35 -5 35 -14z m-3890 -16 c0 -5 -5 -10 -11 -10
-5 0 -7 5 -4 10 3 6 8 10 11 10 2 0 4 -4 4 -10z m161 -52 l-9 -33 -1 36 c-1
20 2 39 6 43 13 12 15 -10 4 -46z m196 17 c-3 -18 2 -31 18 -44 25 -19 65 -79
65 -98 0 -12 -32 -11 -62 2 -23 9 -22 -4 2 -35 16 -21 22 -23 38 -14 17 11 18
8 17 -56 -1 -38 -7 -76 -14 -84 -9 -11 -10 -20 -1 -36 13 -25 18 -179 7 -234
-5 -27 -2 -57 9 -95 21 -72 13 -122 -28 -167 -41 -45 -46 -37 -12 18 26 41 26
42 3 23 l-23 -20 17 27 c9 15 17 37 17 48 0 36 -24 150 -32 150 -4 0 -1 15 7
34 20 48 17 106 -8 133 -29 33 -41 131 -21 178 14 34 14 38 -7 59 -18 18 -22
36 -24 97 -1 48 3 86 13 107 17 38 26 42 19 7z m-228 -25 c0 -10 -3 -8 -9 5
-12 27 -12 43 0 25 5 -8 9 -22 9 -30z m901 -27 c0 -26 -2 -44 -4 -42 -8 9 -13
98 -5 93 5 -3 9 -26 9 -51z m1763 32 c1 -5 -6 -11 -15 -13 -11 -2 -18 3 -18
13 0 17 30 18 33 0z m-2021 -13 c3 -10 -1 -23 -8 -30 -11 -10 -13 -6 -11 18 2
33 12 40 19 12z m-477 -42 c-4 -12 -2 -20 5 -20 7 0 6 -5 -2 -14 -11 -11 -15
-11 -25 3 -15 19 -17 35 -4 27 5 -3 11 1 15 9 8 23 18 18 11 -5z m295 -1 c0
-6 -4 -7 -10 -4 -5 3 -10 11 -10 16 0 6 5 7 10 4 6 -3 10 -11 10 -16z m2421
-12 c34 -22 51 -57 29 -57 -21 0 -100 52 -100 66 0 21 33 17 71 -9z m-3301 3
c0 -5 -5 -10 -11 -10 -5 0 -7 5 -4 10 3 6 8 10 11 10 2 0 4 -4 4 -10z m-260
-20 c0 -5 -20 -21 -45 -36 -70 -41 -76 -62 -32 -129 l19 -30 -31 33 c-35 36
-38 61 -13 112 12 24 28 39 52 47 44 15 50 15 50 3z m277 -12 c-3 -8 -6 -5 -6
6 -1 11 2 17 5 13 3 -3 4 -12 1 -19z m509 -31 c-7 -30 -42 -50 -64 -38 -16 10
-16 10 1 11 9 0 17 4 17 10 0 5 7 7 17 3 13 -5 15 -2 10 16 -3 13 -3 30 0 38
9 23 26 -13 19 -40z m3089 -21 c9 -9 12 -16 6 -16 -6 0 -11 -9 -11 -20 0 -21
-16 -25 -56 -14 -24 6 -48 49 -38 66 9 15 80 3 99 -16z m613 -34 c3 -51 4 -52
30 -47 23 4 24 4 7 -4 -11 -5 -38 -10 -60 -10 -22 1 -34 3 -27 6 7 3 12 24 12
52 0 26 3 51 7 55 16 16 28 -4 31 -52z m-3678 18 c0 -5 -2 -10 -4 -10 -3 0 -8
5 -11 10 -3 6 -1 10 4 10 6 0 11 -4 11 -10z m3603 3 c-7 -2 -21 -2 -30 0 -10
3 -4 5 12 5 17 0 24 -2 18 -5z m-4133 -26 c0 -8 -7 -14 -15 -14 -16 0 -19 9
-8 20 11 11 23 8 23 -6z m3744 -8 c14 -7 23 -16 20 -20 -9 -15 -30 -10 -55 11
-20 16 -21 19 -7 20 9 0 28 -5 42 -11z m-2307 -51 c-3 -8 -6 -5 -6 6 -1 11 2
17 5 13 3 -3 4 -12 1 -19z m3193 -62 c0 -41 5 -78 10 -81 6 -3 10 -24 10 -46
0 -21 -4 -39 -10 -39 -5 0 -10 5 -10 10 0 7 -6 7 -20 0 -18 -10 -20 -8 -20 30
0 33 -3 40 -20 40 -11 0 -20 4 -20 9 0 15 -85 24 -107 12 -26 -13 -19 -65 10
-86 l21 -15 -22 0 c-13 0 -22 6 -22 15 0 22 -28 32 -117 40 -46 4 -83 11 -83
16 0 5 7 9 15 9 8 0 25 11 39 25 18 18 36 25 64 25 21 0 47 7 58 15 14 11 35
13 82 8 53 -5 62 -3 62 11 0 19 -16 22 -23 4 -8 -23 -15 -3 -10 29 5 34 16 40
76 42 l37 1 0 -74z m-5920 14 c13 -24 5 -44 -25 -60 -31 -17 -43 -7 -43 35 0
53 45 69 68 25z m1267 -7 c-3 -10 -5 -4 -5 12 0 17 2 24 5 18 2 -7 2 -21 0
-30z m453 27 c0 -5 -4 -10 -10 -10 -5 0 -10 5 -10 10 0 6 5 10 10 10 6 0 10
-4 10 -10z m3300 0 c0 -5 -7 -10 -15 -10 -8 0 -15 5 -15 10 0 6 7 10 15 10 8
0 15 -4 15 -10z m-2483 -46 c-3 -3 -12 -4 -19 -1 -8 3 -5 6 6 6 11 1 17 -2 13
-5z m110 -16 c-3 -8 -6 -5 -6 6 -1 11 2 17 5 13 3 -3 4 -12 1 -19z m-176 -51
c-10 -9 -11 -8 -5 6 3 10 9 15 12 12 3 -3 0 -11 -7 -18z m-1281 -22 c0 -15
-34 -55 -47 -55 -11 0 -9 7 7 30 19 27 40 40 40 25z m1380 -75 c0 -5 -2 -10
-4 -10 -3 0 -8 5 -11 10 -3 6 -1 10 4 10 6 0 11 -4 11 -10z m126 -67 c-11 -11
-17 4 -9 23 7 18 8 18 11 1 2 -10 1 -21 -2 -24z m2992 -28 c82 -9 97 -25 23
-25 -28 0 -53 -5 -56 -10 -8 -12 -55 34 -55 53 0 9 2 9 8 0 4 -6 40 -15 80
-18z m-3478 -5 c0 -5 -4 -10 -10 -10 -5 0 -10 5 -10 10 0 6 5 10 10 10 6 0 10
-4 10 -10z m740 -15 c0 -8 -4 -15 -10 -15 -5 0 -10 7 -10 15 0 8 5 15 10 15 6
0 10 -7 10 -15z m-1645 -55 c3 -5 1 -10 -4 -10 -6 0 -11 5 -11 10 0 6 2 10 4
10 3 0 8 -4 11 -10z m-55 -40 c0 -5 -5 -10 -11 -10 -5 0 -7 5 -4 10 3 6 8 10
11 10 2 0 4 -4 4 -10z m1537 -12 c-3 -8 -6 -5 -6 6 -1 11 2 17 5 13 3 -3 4
-12 1 -19z m420 -14 c-3 -3 -12 -4 -19 -1 -8 3 -5 6 6 6 11 1 17 -2 13 -5z
m34 -34 c-26 -22 -41 -25 -41 -10 0 6 10 15 23 20 36 14 44 11 18 -10z m-376
-10 c3 -5 1 -10 -4 -10 -6 0 -11 5 -11 10 0 6 2 10 4 10 3 0 8 -4 11 -10z
m285 -10 c0 -9 -50 -23 -58 -16 -2 3 0 12 7 20 12 14 51 11 51 -4z m47 -16
c-3 -3 -12 -4 -19 -1 -8 3 -5 6 6 6 11 1 17 -2 13 -5z m-2505 -100 c29 -15
103 -87 119 -116 7 -13 5 -15 -11 -11 -12 3 -20 0 -20 -7 0 -7 -9 -2 -20 11
l-20 24 15 -37 c18 -44 19 -78 4 -78 -6 0 -22 9 -36 20 -30 24 -45 26 -37 5 4
-8 12 -15 20 -15 8 0 32 -18 55 -41 22 -22 42 -39 43 -37 2 2 7 11 12 20 9 16
14 13 42 -24 18 -23 32 -37 32 -32 0 5 6 -2 14 -16 13 -25 5 -50 -16 -50 -15
0 -108 -64 -108 -75 0 -5 -6 -18 -14 -27 -11 -15 -17 -10 -57 49 -24 37 -56
91 -70 121 -26 54 -98 138 -142 167 -13 8 -43 16 -66 17 -39 1 -42 3 -37 24 5
18 3 22 -9 18 -21 -9 -18 7 8 37 24 28 71 42 150 43 39 1 47 4 47 20 0 16 5
17 37 11 21 -4 50 -13 65 -21z m1713 -14 c3 -5 1 -10 -4 -10 -6 0 -11 5 -11
10 0 6 2 10 4 10 3 0 8 -4 11 -10z m1210 -10 c4 -6 -6 -7 -27 -3 -44 8 -48 13
-10 13 17 0 34 -4 37 -10z m75 -20 c11 -8 7 -9 -15 -4 -37 8 -45 14 -19 14 10
0 26 -5 34 -10z m-2453 -42 c-3 -8 -6 -5 -6 6 -1 11 2 17 5 13 3 -3 4 -12 1
-19z m1911 -46 c2 -15 -2 -22 -12 -22 -11 0 -16 9 -16 26 0 31 23 28 28 -4z
m-1572 -17 c-15 -14 -30 -25 -33 -25 -4 0 4 11 17 25 13 14 28 25 33 25 6 0
-2 -11 -17 -25z m-364 -71 c28 -120 32 -154 19 -154 -6 0 -11 8 -11 17 0 9 -3
13 -7 9 -4 -4 -8 -14 -8 -22 0 -7 -3 -14 -7 -14 -39 0 -39 0 -27 21 11 22 -1
69 -19 69 -4 0 -8 16 -9 35 -1 20 4 35 10 35 8 0 8 3 -1 8 -9 6 -6 14 13 32
14 13 25 28 25 34 0 5 -16 -5 -35 -24 -19 -19 -35 -31 -35 -27 0 14 54 67 64
64 5 -2 18 -39 28 -83z m1871 69 c-7 -2 -21 -2 -30 0 -10 3 -4 5 12 5 17 0 24
-2 18 -5z m886 -50 c0 -10 -4 -27 -9 -38 -6 -15 -8 -11 -7 17 1 21 5 38 10 38
4 0 7 -8 6 -17z m-2829 -17 c0 -2 -9 -6 -20 -9 -11 -3 -18 -1 -14 4 5 9 34 13
34 5z m-320 -10 c0 -11 -19 -15 -25 -6 -3 5 1 10 9 10 9 0 16 -2 16 -4z m2558
-4 c9 -5 32 -16 51 -26 32 -16 34 -16 47 1 12 16 13 15 14 -14 0 -29 -3 -33
-27 -33 -33 1 -136 50 -141 68 -4 14 29 16 56 4z m-2474 -58 c3 -8 2 -12 -4
-9 -6 3 -10 10 -10 16 0 14 7 11 14 -7z m2317 -32 c20 -5 41 -12 47 -16 6 -3
13 -2 17 4 12 19 61 11 85 -15 13 -14 29 -25 36 -25 6 0 17 -7 24 -15 10 -12
10 -18 0 -30 -14 -17 -66 -20 -75 -4 -4 6 -22 8 -45 4 -30 -5 -49 -1 -89 19
-28 14 -60 26 -72 26 -13 0 -23 8 -26 21 -4 16 -11 19 -29 15 -22 -6 -34 11
-19 26 8 7 103 1 146 -10z m-2251 -34 c0 7 5 10 10 7 16 -10 12 -23 -7 -21 -9
2 -19 9 -21 17 -3 11 -1 11 7 -1 8 -11 11 -12 11 -2z m2234 -314 c19 -7 22
-34 4 -34 -22 0 -41 17 -34 29 8 13 9 13 30 5z m-1614 -158 c0 -17 -14 -29
-23 -20 -8 8 3 34 14 34 5 0 9 -6 9 -14z m-18 -198 c-6 -6 -8 -1 -7 14 7 69 8
72 12 34 3 -21 0 -43 -5 -48z m84 27 c-23 -17 -36 -19 -36 -6 0 5 8 12 18 14
32 9 37 6 18 -8z m1576 -106 c-5 -24 -10 -34 -11 -22 -1 13 -10 24 -23 28 -43
13 -78 30 -78 39 0 13 82 -1 91 -16 6 -8 9 -1 10 22 0 31 1 33 11 14 6 -14 6
-36 0 -65z m-1665 29 c-3 -8 -6 -5 -6 6 -1 11 2 17 5 13 3 -3 4 -12 1 -19z
m226 -158 c-7 -28 -13 -25 -13 6 0 14 4 23 9 20 5 -3 7 -15 4 -26z"/>
<path d="M2690 4126 c0 -2 7 -6 15 -10 8 -3 15 -1 15 4 0 6 -7 10 -15 10 -8 0
-15 -2 -15 -4z"/>
<path d="M3142 3148 c-7 -7 -12 -27 -12 -46 0 -19 -4 -31 -10 -27 -15 9 -12
-11 4 -24 12 -10 15 -4 21 31 4 24 11 51 17 61 10 19 -2 23 -20 5z"/>
<path d="M3202 2970 c0 -14 2 -19 5 -12 2 6 2 18 0 25 -3 6 -5 1 -5 -13z"/>
<path d="M3494 2279 c-3 -6 -1 -16 5 -22 8 -8 11 -5 11 11 0 24 -5 28 -16 11z"/>
<path d="M3475 2190 c10 -34 23 -46 35 -34 7 7 2 18 -16 35 l-26 24 7 -25z"/>
<path d="M3352 2185 c-7 -8 -9 -15 -4 -15 5 0 15 7 22 15 16 19 -1 19 -18 0z"/>
<path d="M3550 2145 c0 -8 2 -15 4 -15 2 0 6 7 10 15 3 8 1 15 -4 15 -6 0 -10
-7 -10 -15z"/>
<path d="M3331 2143 c0 -4 4 -17 8 -27 6 -15 9 -16 13 -5 3 8 -1 20 -8 27 -8
7 -14 9 -13 5z"/>
<path d="M3234 2026 c-9 -14 -14 -31 -11 -38 3 -8 9 -2 15 13 6 15 16 29 23
31 10 3 10 6 1 11 -6 5 -18 -3 -28 -17z"/>
<path d="M3195 2009 c-4 -12 -12 -18 -21 -15 -21 8 -27 -16 -13 -50 l12 -29 7
25 8 25 1 -24 c2 -42 12 -15 15 38 2 56 1 61 -9 30z"/>
<path d="M3245 1980 c-19 -37 -19 -60 0 -60 8 0 15 5 15 10 0 6 -5 10 -12 10
-7 0 -6 6 4 18 20 23 30 52 18 52 -5 0 -16 -13 -25 -30z"/>
<path d="M3335 2000 c-3 -5 -1 -10 4 -10 6 0 11 5 11 10 0 6 -2 10 -4 10 -3 0
-8 -4 -11 -10z"/>
<path d="M3491 1926 c-9 -11 -9 -16 1 -22 7 -4 10 -4 6 1 -4 4 -3 14 3 22 6 7
9 13 6 13 -2 0 -10 -6 -16 -14z"/>
<path d="M3180 1894 c0 -22 12 -44 21 -38 15 9 10 51 -6 51 -8 0 -15 -6 -15
-13z"/>
<path d="M3280 1872 c6 -13 14 -21 18 -18 3 4 -2 14 -12 24 -18 16 -18 16 -6
-6z"/>
<path d="M3132 1843 c-11 -4 -42 -54 -42 -67 0 -3 16 2 35 11 19 9 32 20 29
25 -3 4 -1 8 5 8 6 0 8 7 5 15 -6 16 -11 17 -32 8z"/>
<path d="M3453 1815 c0 -8 4 -15 9 -15 4 0 8 7 8 15 0 8 -4 15 -8 15 -5 0 -9
-7 -9 -15z"/>
<path d="M3271 1729 c-7 -12 -10 -23 -8 -26 3 -3 11 5 17 17 15 28 8 35 -9 9z"/>
<path d="M3276 1659 c-13 -13 -17 -27 -14 -49 4 -24 1 -30 -10 -25 -10 4 -12
0 -8 -11 3 -8 6 -20 6 -25 0 -5 11 -2 24 6 29 19 54 74 39 83 -6 4 -12 14 -14
23 -4 14 -6 14 -23 -2z"/>
<path d="M3363 1573 c-16 -6 -17 -25 -1 -41 9 -9 16 -8 29 4 29 26 9 52 -28
37z"/>
<path d="M3876 2214 c-4 -10 -1 -14 6 -12 15 5 23 28 10 28 -5 0 -13 -7 -16
-16z"/>
<path d="M7810 2066 c0 -2 7 -6 15 -10 8 -3 15 -1 15 4 0 6 -7 10 -15 10 -8 0
-15 -2 -15 -4z"/>
<path d="M2555 1548 c15 -13 43 -36 62 -52 18 -15 33 -24 33 -18 0 8 -30 37
-87 82 -7 6 -18 10 -25 10 -7 0 1 -10 17 -22z"/>
<path d="M2550 1493 c0 -12 28 -38 34 -32 2 2 -5 13 -15 23 -11 11 -19 15 -19
9z"/>
<path d="M3090 1366 c0 -2 7 -7 16 -10 8 -3 12 -2 9 4 -6 10 -25 14 -25 6z"/>
<path d="M3703 4223 c9 -2 23 -2 30 0 6 3 -1 5 -18 5 -16 0 -22 -2 -12 -5z"/>
<path d="M50 3844 c-12 -24 -28 -44 -36 -44 -12 0 -14 -66 -14 -425 0 -234 1
-425 3 -425 1 0 36 9 76 20 41 12 81 18 88 15 8 -3 30 2 49 11 37 18 77 13
106 -13 15 -13 18 -13 28 6 6 12 15 19 19 16 5 -3 19 3 30 13 20 16 21 22 14
97 l-8 80 -102 3 c-122 3 -127 8 -138 114 -9 88 7 118 64 118 22 0 44 -6 51
-15 11 -13 16 -13 44 2 17 8 37 19 44 22 8 3 13 9 13 14 -1 4 -1 20 -1 35 0
22 -7 30 -30 39 -34 13 -40 44 -16 78 17 25 65 182 58 190 -3 3 -27 5 -53 5
-57 0 -115 24 -147 62 -20 24 -26 26 -48 16 -17 -8 -30 -8 -48 0 -23 10 -26 8
-46 -34z"/>
<path d="M720 3830 c0 -5 7 -10 15 -10 8 0 15 5 15 10 0 6 -7 10 -15 10 -8 0
-15 -4 -15 -10z"/>
<path d="M590 3810 c0 -13 20 -13 40 0 12 8 9 10 -12 10 -16 0 -28 -4 -28 -10z"/>
<path d="M730 3785 c0 -8 5 -15 10 -15 6 0 10 7 10 15 0 8 -4 15 -10 15 -5 0
-10 -7 -10 -15z"/>
<path d="M894 3694 c3 -9 6 -18 6 -20 0 -2 12 -4 28 -4 l27 0 -25 20 c-30 24
-44 25 -36 4z"/>
<path d="M8145 3670 c-4 -19 -3 -36 4 -43 7 -7 11 -7 11 -1 0 6 24 9 63 6 68
-5 69 7 2 28 -22 7 -47 19 -57 27 -14 13 -17 11 -23 -17z"/>
<path d="M8011 3631 c-70 -36 -62 -84 15 -95 26 -3 53 -11 60 -17 11 -9 18 -8
30 1 17 15 14 91 -4 113 -16 18 -62 17 -101 -2z"/>
<path d="M4234 3626 c-4 -9 -4 -20 0 -23 3 -3 -1 -11 -10 -18 -14 -10 -14 -12
0 -24 14 -11 16 -11 16 5 0 16 2 16 13 3 6 -8 24 -20 39 -27 25 -10 28 -9 43
20 17 35 13 47 -10 28 -13 -11 -21 -8 -50 20 -30 29 -35 31 -41 16z"/>
<path d="M7727 3594 c-9 -9 3 -34 17 -34 6 0 18 5 26 10 13 9 13 11 0 20 -17
11 -34 13 -43 4z"/>
<path d="M4294 3448 c10 -15 24 -50 31 -79 14 -52 12 -76 -4 -50 -6 9 -10 5
-15 -14 -4 -15 -5 -30 -1 -33 3 -3 5 2 5 12 0 9 5 14 10 11 6 -3 10 -26 10
-51 0 -29 6 -51 16 -62 13 -12 14 -17 4 -20 -7 -3 -19 3 -25 12 -20 27 -27 18
-10 -14 15 -28 45 -42 45 -20 0 22 95 -5 95 -27 0 -5 6 -17 12 -28 14 -24 31
-12 35 25 3 21 -2 25 -38 32 -51 11 -122 71 -106 91 6 7 9 29 8 49 -9 91 -20
143 -32 156 -8 7 -14 10 -14 6 0 -4 -10 1 -22 12 l-21 19 17 -27z"/>
<path d="M4160 3444 c0 -8 5 -12 10 -9 6 4 8 11 5 16 -9 14 -15 11 -15 -7z"/>
<path d="M7648 3453 c6 -2 18 -2 25 0 6 3 1 5 -13 5 -14 0 -19 -2 -12 -5z"/>
<path d="M7812 3448 c3 -9 29 -14 74 -16 63 -2 67 -1 50 13 -25 19 -130 21
-124 3z"/>
<path d="M4190 3411 c0 -5 5 -13 10 -16 6 -3 10 -2 10 4 0 5 -4 13 -10 16 -5
3 -10 2 -10 -4z"/>
<path d="M4281 3358 c-1 -16 4 -28 9 -28 12 0 12 8 0 35 -8 18 -9 17 -9 -7z"/>
<path d="M1405 3356 c-6 -6 -18 -22 -28 -36 -18 -26 -24 -11 -7 20 8 15 7 18
-2 14 -12 -5 -80 -136 -92 -176 -2 -9 3 -23 13 -32 16 -15 19 -15 34 2 9 10
25 43 36 73 11 30 29 74 41 97 22 44 24 59 5 38z"/>
<path d="M4235 3349 c-4 -6 -5 -12 -2 -15 2 -3 7 2 10 11 7 17 1 20 -8 4z"/>
<path d="M4257 3243 c-3 -16 -1 -32 4 -37 6 -6 9 -5 9 5 0 7 3 24 6 37 4 12 2
22 -4 22 -5 0 -12 -12 -15 -27z"/>
<path d="M503 2995 c3 -164 4 -180 21 -183 29 -6 42 14 24 35 -11 13 -17 53
-22 151 -11 208 -26 206 -23 -3z"/>
<path d="M5820 2995 c-29 -35 18 -75 74 -61 35 9 38 60 4 70 -38 10 -65 7 -78
-9z"/>
<path d="M4450 2971 c0 -6 5 -13 10 -16 6 -3 10 1 10 9 0 9 -4 16 -10 16 -5 0
-10 -4 -10 -9z"/>
<path d="M4482 2940 c-16 -53 -15 -64 8 -85 20 -18 21 -18 34 0 12 16 16 17
30 6 20 -17 48 2 39 26 -4 11 -2 14 5 9 7 -4 12 -16 12 -26 0 -10 5 -22 10
-25 6 -3 10 4 10 17 0 18 2 20 10 8 7 -11 10 -4 10 26 0 29 -5 44 -16 48 -25
10 -41 6 -21 -5 9 -5 17 -17 17 -25 0 -13 -4 -13 -29 1 -17 8 -36 23 -43 33
-7 10 -24 22 -38 25 -23 6 -27 2 -38 -33z m78 -10 c0 -5 -2 -10 -4 -10 -3 0
-8 5 -11 10 -3 6 -1 10 4 10 6 0 11 -4 11 -10z"/>
<path d="M7748 2918 c-54 -44 5 -111 68 -77 31 16 30 63 -2 78 -32 14 -47 14
-66 -1z"/>
<path d="M340 2843 c0 -7 -11 -13 -24 -13 -14 0 -28 -4 -31 -10 -10 -15 -52
-12 -59 5 -7 20 -42 19 -50 -1 -5 -14 -18 -15 -91 -9 -74 6 -85 5 -85 -9 0
-14 20 -15 187 -10 178 5 231 14 187 30 -10 4 -22 12 -26 18 -5 7 -8 7 -8 -1z"/>
<path d="M4350 2802 c0 -4 -16 -25 -36 -46 -33 -35 -40 -56 -18 -63 10 -3 74
87 74 105 0 7 -4 12 -10 12 -5 0 -10 -4 -10 -8z"/>
<path d="M4583 2783 c10 -3 17 -14 17 -29 0 -13 5 -24 10 -24 6 0 10 6 10 14
0 29 -13 46 -34 45 -16 -1 -17 -2 -3 -6z"/>
<path d="M4166 2771 c-4 -7 -5 -15 -2 -18 9 -9 19 4 14 18 -4 11 -6 11 -12 0z"/>
<path d="M4640 2771 c0 -6 5 -13 10 -16 6 -3 10 1 10 9 0 9 -4 16 -10 16 -5 0
-10 -4 -10 -9z"/>
<path d="M0 2616 c0 -34 4 -45 18 -48 10 -3 24 -23 32 -47 10 -31 17 -40 30
-36 23 7 48 -31 52 -81 3 -41 29 -56 36 -21 6 30 -7 67 -23 67 -9 0 -15 9 -15
24 0 14 -12 38 -26 55 -18 22 -23 37 -19 52 7 20 12 21 68 14 73 -8 71 0 -4
20 -30 8 -75 21 -101 29 l-48 15 0 -43z"/>
<path d="M495 2650 c-8 -13 4 -32 16 -25 12 8 12 35 0 35 -6 0 -13 -4 -16 -10z"/>
<path d="M642 2608 c-18 -18 -14 -38 8 -38 13 0 20 7 20 19 0 25 -13 34 -28
19z"/>
<path d="M4116 2584 c-9 -22 3 -32 14 -14 12 19 12 30 1 30 -5 0 -12 -7 -15
-16z"/>
<path d="M4686 2575 c4 -8 11 -15 16 -15 6 0 5 6 -2 15 -7 8 -14 15 -16 15 -2
0 -1 -7 2 -15z"/>
<path d="M4330 2555 c-13 -14 -21 -27 -19 -30 6 -5 59 39 59 49 0 13 -17 5
-40 -19z"/>
<path d="M405 2498 c-3 -8 -1 -28 5 -43 9 -23 13 -26 20 -15 14 22 12 46 -5
60 -12 10 -16 9 -20 -2z"/>
<path d="M4290 2487 c0 -8 39 -81 40 -74 0 12 -28 77 -34 77 -4 0 -6 -1 -6 -3z"/>
<path d="M4335 2425 c0 -25 2 -45 5 -45 3 1 13 12 23 26 18 24 18 26 1 45 -25
28 -30 24 -29 -26z"/>
<path d="M4928 2443 c-10 -3 -18 -11 -18 -18 0 -7 -6 -16 -12 -19 -10 -5 -10
-7 0 -12 17 -8 15 -27 -2 -21 -11 4 -14 -3 -11 -31 2 -20 8 -48 14 -62 11 -24
11 -24 6 5 -5 28 -4 29 10 11 8 -11 15 -27 15 -35 0 -14 1 -14 10 -1 5 8 15
15 21 15 11 0 33 53 23 56 -2 1 -10 2 -16 3 -7 1 -13 12 -13 26 0 34 6 45 16
29 7 -11 9 -11 9 1 0 24 -33 57 -52 53z"/>
<path d="M4740 2336 c0 -9 -5 -16 -11 -16 -5 0 -2 -13 7 -30 13 -21 20 -26 26
-17 13 20 9 54 -7 67 -12 10 -15 10 -15 -4z"/>
<path d="M5010 2333 c1 -20 20 -37 29 -28 7 7 4 14 -9 23 -11 7 -20 9 -20 5z"/>
<path d="M4782 2280 c0 -14 2 -19 5 -12 2 6 2 18 0 25 -3 6 -5 1 -5 -13z"/>
<path d="M4926 2227 c3 -10 9 -15 12 -12 3 3 0 11 -7 18 -10 9 -11 8 -5 -6z"/>
<path d="M4936 2184 c-9 -8 -16 -23 -15 -32 0 -14 2 -14 6 -2 3 8 12 23 21 33
19 21 9 23 -12 1z"/>
<path d="M4945 2130 c-5 -28 -3 -46 5 -53 9 -9 11 -5 8 18 -2 20 1 29 10 27
10 -2 10 2 1 20 -6 13 -13 24 -14 26 -2 2 -6 -15 -10 -38z"/>
<path d="M4895 2090 c3 -5 8 -10 11 -10 2 0 4 5 4 10 0 6 -5 10 -11 10 -5 0
-7 -4 -4 -10z"/>
<path d="M4640 2075 c0 -8 4 -15 10 -15 5 0 7 7 4 15 -4 8 -8 15 -10 15 -2 0
-4 -7 -4 -15z"/>
<path d="M4852 2019 c6 -16 12 -28 14 -26 5 5 -13 57 -20 57 -3 0 0 -14 6 -31z"/>
<path d="M50 1925 c0 -24 89 -204 170 -345 20 -36 72 -131 114 -212 62 -120
76 -155 76 -192 0 -33 4 -46 14 -46 8 0 16 5 18 12 3 7 19 -15 36 -50 28 -54
31 -70 30 -138 -1 -70 1 -79 22 -96 22 -18 34 -19 131 -12 l107 6 36 -34 c44
-43 62 -88 46 -117 -15 -29 -25 -26 -49 14 -20 35 -45 42 -76 23 -5 -3 -25 -9
-43 -13 -30 -6 -31 -8 -17 -28 31 -45 15 -67 -50 -67 -18 0 -49 -7 -70 -15
-38 -17 -65 -8 -65 20 0 10 -11 8 -41 -7 -22 -10 -42 -18 -44 -16 -8 8 41 98
53 98 22 0 13 26 -13 38 -33 15 -34 15 -28 -6 3 -11 -8 -31 -29 -53 -29 -31
-40 -36 -63 -30 -3 0 2 12 11 26 9 14 14 28 10 32 -3 3 -6 1 -6 -6 0 -7 -4
-10 -9 -6 -5 3 -12 1 -16 -5 -3 -5 -18 -10 -32 -10 -25 0 -25 1 -9 25 l16 25
-69 0 -70 0 -3 38 c-2 25 -7 36 -17 34 -11 -2 -13 24 -8 155 4 87 11 214 16
283 6 77 6 129 0 134 -6 6 -9 6 -9 -1 0 -10 -48 -9 -97 2 l-22 5 -1 -695 -1
-695 491 0 c388 0 494 3 504 13 9 8 15 52 18 120 3 59 7 110 11 113 6 7 209
48 287 59 27 4 90 1 140 -6 50 -6 92 -10 94 -8 3 2 -12 31 -31 64 -73 123
-167 307 -401 785 -148 303 -174 350 -212 383 -24 20 -50 37 -57 37 -7 0 -53
23 -103 50 -50 28 -94 50 -99 50 -5 0 -16 7 -25 15 -18 18 -535 275 -553 275
-7 0 -13 -11 -13 -25z m0 -594 c0 -5 -6 -14 -14 -20 -12 -10 -13 -8 -9 8 5 21
23 30 23 12z m666 -129 c5 -23 13 -31 42 -38 19 -5 37 -14 39 -20 7 -21 -28
-44 -67 -44 -21 0 -61 -5 -89 -12 -39 -9 -57 -9 -77 0 -48 23 -9 69 62 74 34
2 61 26 56 51 -2 10 3 17 13 17 9 0 18 -11 21 -28z m134 -244 c0 -10 -4 -18
-10 -18 -15 0 -32 40 -25 58 6 15 8 15 21 -2 8 -11 14 -28 14 -38z m-710 -268
c0 -4 -9 -10 -20 -13 -11 -3 -24 -17 -30 -31 -7 -19 -17 -26 -35 -26 -28 0
-32 12 -10 30 8 7 15 17 15 22 0 19 25 34 52 30 15 -2 28 -8 28 -12z m65 -10
c-10 -11 -23 -20 -29 -20 -6 0 0 9 14 20 32 25 38 25 15 0z m69 -15 c-4 -9
-19 -15 -38 -15 -29 1 -30 1 -12 15 26 20 57 20 50 0z m570 -76 c54 -21 57
-21 76 -4 25 22 50 13 50 -19 0 -13 7 -26 15 -30 44 -16 -8 -61 -111 -96 -33
-10 -79 -27 -104 -36 -100 -38 -310 -33 -375 10 -41 27 -28 106 18 106 12 0
54 11 92 24 39 13 86 27 105 31 19 4 44 14 55 21 29 21 115 17 179 -7z m-634
1 c0 -5 -4 -10 -9 -10 -6 0 -13 5 -16 10 -3 6 1 10 9 10 9 0 16 -4 16 -10z
m21 -243 c0 -21 1 -21 8 -2 7 18 8 17 14 -6 3 -13 3 -35 0 -48 -5 -20 -3 -23
10 -18 11 4 14 2 10 -9 -7 -18 -10 -18 -33 4 -25 23 -40 65 -33 91 7 26 23 18
24 -12z m32 -127 c44 0 45 -10 0 -15 -15 -2 -39 -7 -53 -10 -19 -5 -28 -1 -38
16 -14 21 -13 22 18 15 18 -3 51 -6 73 -6z"/>
<path d="M4651 1824 c0 -11 3 -14 6 -6 3 7 2 16 -1 19 -3 4 -6 -2 -5 -13z"/>
<path d="M347 1208 c-13 -19 -16 -20 -16 -5 -1 10 -9 17 -21 17 -17 0 -20 -7
-20 -39 0 -22 3 -46 6 -55 7 -18 46 -21 75 -6 20 11 27 60 8 60 -7 0 -5 10 5
25 16 24 15 25 -3 25 -10 0 -26 -10 -34 -22z m13 -58 c0 -5 -7 -10 -15 -10 -8
0 -15 5 -15 10 0 6 7 10 15 10 8 0 15 -4 15 -10z"/>
<path d="M245 1210 l-30 -8 33 -1 c17 0 32 4 32 9 0 6 -1 9 -2 9 -2 -1 -16 -5
-33 -9z"/>
<path d="M240 1176 c0 -8 -3 -21 -6 -30 -4 -12 0 -16 15 -16 12 0 21 -4 21 -9
0 -5 -12 -7 -27 -5 -22 4 -25 2 -16 -7 6 -6 22 -9 36 -6 20 6 23 11 19 37 -3
19 -10 30 -21 31 -12 0 -12 2 4 9 19 8 19 9 -2 9 -14 1 -23 -5 -23 -13z"/>
<path d="M2007 1094 c7 -41 62 -178 63 -154 0 8 -9 44 -21 80 -11 36 -17 75
-14 87 4 18 1 23 -14 23 -17 0 -19 -5 -14 -36z"/>
<path d="M1156 1096 c3 -9 16 -13 32 -11 15 2 36 4 47 4 37 2 -6 21 -47 21
-28 0 -36 -3 -32 -14z"/>
<path d="M232 1050 c0 -14 2 -19 5 -12 2 6 2 18 0 25 -3 6 -5 1 -5 -13z"/>
<path d="M1895 997 c-4 -10 -5 -21 -1 -24 10 -10 18 4 13 24 -4 17 -4 17 -12
0z"/>
<path d="M1945 951 c-3 -5 -1 -12 5 -16 5 -3 10 1 10 9 0 18 -6 21 -15 7z"/>
<path d="M2045 900 c-6 -10 75 -114 83 -106 2 3 -9 30 -24 60 -27 53 -46 68
-59 46z"/>
<path d="M1520 890 c0 -6 7 -13 15 -16 14 -6 13 -8 -2 -19 -15 -11 -24 -10
-56 7 -22 11 -36 15 -33 10 3 -6 -10 -10 -32 -9 -47 0 -118 -27 -114 -45 6
-21 40 -48 62 -48 11 0 23 -7 26 -15 4 -8 14 -15 24 -15 11 0 22 -5 26 -11 4
-7 0 -9 -12 -5 -11 3 -31 2 -47 -2 l-27 -7 22 -32 c13 -17 35 -34 50 -37 16
-3 28 -9 28 -14 0 -5 -11 -7 -25 -4 -14 2 -25 0 -25 -6 0 -14 15 -23 24 -15
14 15 64 12 77 -4 12 -15 12 -16 -4 -10 -21 8 -77 -2 -77 -14 0 -5 9 -17 20
-26 11 -10 20 -27 20 -38 0 -15 2 -17 9 -7 10 16 43 12 48 -5 3 -7 -7 -15 -22
-19 -25 -6 -25 -7 -8 -23 10 -9 44 -29 76 -46 31 -16 57 -33 57 -36 0 -4 12
-10 27 -14 15 -3 32 -13 38 -21 6 -9 30 -18 53 -21 35 -5 42 -3 42 11 0 12 6
15 23 11 12 -3 42 -1 67 4 l45 9 -33 7 c-29 7 -31 9 -15 21 15 10 22 10 38 0
24 -15 125 -19 125 -5 0 5 -11 15 -25 21 -14 6 -25 15 -25 20 0 12 10 10 44
-11 24 -15 42 -18 79 -14 42 5 47 8 41 26 -5 16 -3 19 10 14 9 -4 16 -2 16 3
0 6 -5 10 -11 10 -5 0 -8 4 -4 9 3 5 -1 15 -8 23 -7 7 -16 21 -20 30 -3 10
-18 20 -32 24 -14 3 -25 11 -25 16 0 6 11 7 27 3 26 -6 26 -5 13 12 -9 10 -15
27 -15 38 0 11 -5 25 -11 32 -21 22 -295 154 -306 147 -6 -4 -8 -3 -5 3 3 5
-40 33 -97 61 -98 49 -156 65 -156 42z m-86 -76 c25 -14 46 -26 46 -27 0 -1
-25 -3 -56 -5 -37 -2 -54 0 -49 7 3 6 15 11 26 11 11 0 18 4 15 9 -3 4 -29 7
-58 5 l-53 -4 35 14 c46 19 41 20 94 -10z m197 14 c1 -7 1 -21 0 -30 -2 -12 5
-18 18 -18 11 0 23 -5 27 -11 8 -14 -32 -2 -60 17 -10 7 -33 11 -50 9 -28 -4
-29 -4 -6 4 14 5 19 9 13 10 -7 1 -13 6 -13 12 0 6 9 9 20 6 11 -3 23 -1 26 4
8 13 24 11 25 -3z m-117 -54 c29 -11 16 -19 -36 -22 -52 -2 -58 12 -8 21 14 2
26 5 27 6 1 0 8 -2 17 -5z m61 -34 c3 -5 -1 -10 -9 -10 -9 0 -16 5 -16 10 0 6
4 10 9 10 6 0 13 -4 16 -10z m175 -10 c0 -5 -9 -6 -20 -3 -11 3 -20 9 -20 13
0 5 9 6 20 3 11 -3 20 -9 20 -13z m-120 -20 c12 -8 11 -10 -7 -10 -13 0 -23 5
-23 10 0 13 11 13 30 0z m-147 -7 c3 -5 -23 -9 -56 -10 -43 -2 -57 0 -47 7 18
11 97 13 103 3z m87 -3 c0 -5 -4 -10 -10 -10 -5 0 -10 5 -10 10 0 6 5 10 10
10 6 0 10 -4 10 -10z m264 -11 c22 -12 48 -26 56 -30 8 -5 27 -14 43 -20 23
-9 38 -29 22 -29 -8 0 -158 81 -169 91 -17 15 5 10 48 -12z m-144 -9 c12 -8
11 -10 -7 -10 -12 0 -25 5 -28 10 -8 13 15 13 35 0z m-146 -8 c2 -4 -21 -9
-52 -9 -31 -1 -51 2 -44 6 17 10 89 13 96 3z m209 -26 c3 -8 16 -16 28 -18 12
-2 24 -9 27 -16 3 -9 -15 -4 -47 12 -28 15 -51 29 -51 31 0 12 38 4 43 -9z
m-143 -11 c0 -12 -4 -13 -18 -6 -10 5 -38 7 -62 4 -31 -4 -41 -3 -36 5 4 7 31
12 62 12 42 0 54 -3 54 -15z m55 -25 c3 -5 -3 -10 -14 -10 -11 0 -23 5 -26 10
-3 6 3 10 14 10 11 0 23 -4 26 -10z m355 -15 c17 -9 30 -18 30 -20 0 -12 -37
-3 -60 15 -30 23 -11 26 30 5z m-460 -23 c0 -4 -25 -8 -55 -10 -36 -2 -55 1
-55 8 0 6 8 9 18 6 10 -4 27 0 37 8 19 14 55 6 55 -12z m157 1 c-9 -8 -48 8
-42 18 4 5 14 5 26 -2 12 -6 18 -13 16 -16z m137 21 c9 -3 16 -10 16 -14 0
-10 -38 -1 -46 11 -6 10 7 12 30 3z m66 -34 c8 -5 11 -12 8 -16 -10 -9 -38 3
-38 16 0 12 10 13 30 0z m-316 -6 c29 -11 17 -21 -26 -21 -37 0 -40 1 -23 13
21 16 27 17 49 8z m171 -3 c10 -17 -11 -21 -31 -6 -18 14 -18 14 3 15 12 0 24
-4 28 -9z m-248 -17 c-3 -3 -12 -4 -19 -1 -8 3 -5 6 6 6 11 1 17 -2 13 -5z
m454 -4 c5 0 9 -4 9 -10 0 -16 -26 -12 -41 7 -12 15 -12 16 4 10 10 -4 23 -7
28 -7z m-320 -10 c10 -6 19 -15 19 -21 0 -6 -5 -7 -11 -3 -7 4 -26 7 -43 6
-29 -1 -30 0 -12 14 24 17 22 17 47 4z m175 -17 c-8 -8 -36 5 -36 17 0 7 6 7
21 0 11 -7 18 -14 15 -17z m219 -23 c8 -13 -1 -13 -26 0 -10 6 -19 15 -19 21
0 11 35 -5 45 -21z m-491 4 c25 -10 19 -34 -9 -34 -18 0 -25 5 -25 20 0 21 8
24 34 14z m170 -10 c5 -12 2 -15 -10 -10 -8 3 -20 6 -25 6 -5 0 -9 5 -9 10 0
16 37 11 44 -6z m166 6 c0 -5 -6 -10 -14 -10 -8 0 -18 5 -21 10 -3 6 3 10 14
10 12 0 21 -4 21 -10z m80 0 c0 -5 -5 -10 -11 -10 -5 0 -7 5 -4 10 3 6 8 10
11 10 2 0 4 -4 4 -10z m126 -25 c16 -12 16 -14 3 -15 -9 0 -22 7 -29 15 -16
19 0 19 26 0z m-316 -5 c8 -5 12 -12 8 -15 -9 -9 -48 4 -48 16 0 12 21 11 40
-1z m165 -1 c4 -6 5 -12 2 -15 -7 -7 -37 7 -37 17 0 13 27 11 35 -2z m-320
-10 c9 -13 5 -16 -20 -21 -12 -2 -21 3 -23 15 -4 19 32 25 43 6z m216 -19 c5
0 9 -7 9 -15 0 -18 -5 -18 -31 -5 -23 13 -26 35 -3 26 9 -3 20 -6 25 -6z
m-167 -6 c22 -9 20 -24 -3 -24 -21 0 -34 13 -24 24 8 7 8 7 27 0z m76 -49 c8
-9 8 -15 2 -15 -6 0 -17 -2 -24 -5 -9 -4 -14 2 -15 15 -2 24 19 26 37 5z"/>
<path d="M1940 862 c0 -6 10 -20 21 -31 13 -12 19 -26 16 -35 -4 -11 -1 -16
11 -16 15 0 15 -2 2 -10 -13 -8 -13 -10 2 -10 22 0 84 -42 114 -77 13 -15 26
-24 30 -20 4 4 -8 22 -27 40 -19 19 -57 58 -84 88 -61 65 -85 85 -85 71z"/>
<path d="M255 780 c3 -5 8 -10 11 -10 2 0 4 5 4 10 0 6 -5 10 -11 10 -5 0 -7
-4 -4 -10z"/>
<path d="M1340 745 c0 -9 6 -12 15 -9 8 4 12 10 9 15 -8 14 -24 10 -24 -6z"/>
<path d="M330 740 c-12 -8 -11 -10 7 -10 12 0 25 5 28 10 8 13 -15 13 -35 0z"/>
<path d="M2719 702 c6 -11 20 -24 32 -27 16 -5 18 -10 8 -21 -9 -11 -6 -14 17
-15 16 -1 49 -3 74 -4 l45 -3 -55 26 c-30 14 -72 34 -93 45 l-39 19 11 -20z"/>
<path d="M2150 651 c0 -6 4 -13 10 -16 6 -3 7 1 4 9 -7 18 -14 21 -14 7z"/>
<path d="M2895 620 c-3 -5 -1 -10 4 -10 6 0 11 5 11 10 0 6 -2 10 -4 10 -3 0
-8 -4 -11 -10z"/>
<path d="M5350 540 c0 -5 4 -10 9 -10 6 0 13 5 16 10 3 6 -1 10 -9 10 -9 0
-16 -4 -16 -10z"/>
<path d="M2805 449 c-11 -16 -1 -19 13 -3 7 8 8 14 3 14 -5 0 -13 -5 -16 -11z"/>
<path d="M2874 441 c-5 -4 -70 -21 -144 -36 -163 -34 -187 -47 -137 -74 57
-30 333 76 295 114 -2 3 -9 1 -14 -4z"/>
<path d="M2554 404 c3 -9 6 -18 6 -20 0 -3 9 0 20 6 24 13 17 30 -12 30 -14 0
-18 -5 -14 -16z"/>
<path d="M3800 375 c0 -16 27 -32 37 -21 7 7 -16 36 -28 36 -5 0 -9 -7 -9 -15z"/>
<path d="M2405 361 c-3 -10 -3 -26 1 -35 4 -11 1 -16 -14 -16 -15 0 -21 -9
-26 -40 -3 -22 -10 -40 -16 -40 -17 0 -2 -106 25 -167 l28 -63 203 0 c112 0
204 2 204 4 0 2 -37 39 -82 83 -46 44 -128 124 -183 178 -116 113 -131 123
-140 96z m25 -21 c0 -5 -4 -10 -10 -10 -5 0 -10 5 -10 10 0 6 5 10 10 10 6 0
10 -4 10 -10z"/>
<path d="M2135 328 c-58 -14 -70 -23 -67 -47 2 -11 -2 -21 -7 -21 -6 0 -11 11
-11 25 0 26 -12 30 -60 16 -21 -6 -24 -12 -22 -39 2 -18 -1 -32 -6 -32 -6 0
-9 12 -7 26 3 32 -12 38 -63 24 -36 -9 -41 -14 -44 -42 -2 -17 -10 -33 -18
-36 -12 -4 -13 -2 -2 9 6 7 12 21 12 31 0 21 -10 22 -62 7 -42 -11 -43 -12
-27 -37 8 -13 7 -27 -4 -55 l-16 -37 27 14 c48 24 163 54 312 81 80 14 156 30
169 36 l25 10 -25 17 c-13 9 -24 26 -24 37 0 24 -22 27 -80 13z m11 -47 c-12
-19 -24 -12 -19 10 4 13 9 17 15 11 6 -6 7 -15 4 -21z"/>
<path d="M3300 164 c0 -8 5 -12 10 -9 6 4 8 11 5 16 -9 14 -15 11 -15 -7z"/>
</g>
</svg>
